<svg width="88" height="114" viewBox="0 0 88 114" fill="none" xmlns="http://www.w3.org/2000/svg">
<path d="M42.8901 0C74.3075 0 98.8235 42.5644 83.1148 69.8377C67.4061 97.111 -15.8266 121.228 2.66532 69.8377C21.1573 18.4477 11.4726 0 42.8901 0Z" fill="#FFBB41" fill-opacity="0.1"/>
<path d="M22.2539 90.5026C21.3721 90.5026 20.5645 90.5026 19.698 90.5026C19.698 89.6173 19.698 88.7931 19.698 87.8707C19.9905 87.8707 20.2786 87.8707 20.5689 87.8707C25.8794 87.8707 31.1899 87.8816 36.4982 87.8685C43.5876 87.8489 49.3761 83.0714 50.7665 76.1177C52.3468 68.2089 46.591 60.25 38.5761 59.2797C37.7947 59.1859 37.0024 59.1379 36.2167 59.1358C31.0153 59.1227 25.8139 59.1292 20.6125 59.1292C20.3179 59.1292 20.0254 59.1292 19.6849 59.1292C19.6849 58.2614 19.6849 57.4546 19.6849 56.5584C20.4881 56.5584 21.3154 56.5584 22.2517 56.5584C22.2517 56.1833 22.2517 55.8955 22.2517 55.6077C22.2517 50.3831 22.2495 45.1564 22.2517 39.9319C22.2539 35.7845 25.0172 33.0043 29.1491 33.0043C45.4648 33 61.7761 33 78.0874 33.0022C82.2236 33.0022 84.9956 35.7758 84.9978 39.9188C85 62.3172 85 84.7155 84.9978 107.112C84.9978 111.202 82.2149 113.993 78.1354 113.996C61.7979 114 45.4582 114 29.1207 113.996C25.0412 113.996 22.2626 111.202 22.2583 107.114C22.2539 101.889 22.2561 96.6626 22.2561 91.4381C22.2539 91.1459 22.2539 90.8537 22.2539 90.5026ZM24.8688 56.517C25.2617 56.517 25.5542 56.517 25.8488 56.517C29.3608 56.517 32.8749 56.4908 36.3869 56.5322C37.5787 56.5475 38.7835 56.6478 39.9556 56.8593C48.7934 58.4663 55.0184 67.4719 53.4032 76.2616C51.8513 84.7068 44.9671 90.4634 36.3869 90.483C32.8466 90.4895 29.3062 90.4852 25.7681 90.4852C25.4821 90.4852 25.194 90.4852 24.8688 90.4852C24.8688 90.8188 24.8688 91.0347 24.8688 91.2484C24.8688 96.5558 24.8644 101.861 24.871 107.168C24.8732 109.763 26.5058 111.386 29.1141 111.386C41.9659 111.388 54.8198 111.388 67.6715 111.386C70.2842 111.386 71.9235 109.765 71.9256 107.177C71.9278 84.7264 71.9278 62.2735 71.9256 39.8228C71.9256 37.2607 70.2973 35.6188 67.7523 35.6188C54.846 35.6144 41.9375 35.6144 29.0312 35.6188C26.532 35.6188 24.8797 37.2673 24.871 39.7531C24.8622 42.2301 24.8688 44.705 24.8688 47.1821C24.8688 50.2523 24.8688 53.3247 24.8688 56.517ZM73.2418 35.621C74.1433 36.9925 74.5492 38.3597 74.5492 39.8752C74.5383 62.2953 74.5383 84.7155 74.5471 107.136C74.5471 108.507 74.2393 109.77 73.5168 110.936C73.4426 111.056 73.4055 111.2 73.3291 111.386C74.8788 111.386 76.3478 111.386 77.8167 111.386C80.8813 111.386 82.3851 109.887 82.3851 106.839C82.3851 84.6087 82.3851 62.3804 82.3851 40.1499C82.3851 39.8512 82.3939 39.5503 82.372 39.2516C82.2345 37.3109 80.6477 35.6995 78.7029 35.6341C76.9349 35.5752 75.1648 35.621 73.2418 35.621Z" fill="#FFBB41"/>
<path d="M30.116 85.4439C30.116 77.3846 30.116 69.6307 30.116 61.7873C33.4315 61.6892 36.7449 61.4624 39.7767 63.2439C42.5771 64.8924 44.4738 67.2496 45.3535 70.3873C47.1062 76.628 43.4152 83.2175 37.0657 84.7897C34.8656 85.337 32.5017 85.2389 30.116 85.4439ZM32.7462 82.6266C36.8868 82.8447 40.1324 81.4099 42.0685 77.7662C43.8954 74.3275 43.5505 70.9128 41.1605 67.8339C39.0455 65.1105 36.1403 64.1314 32.7462 64.3931C32.7462 70.5029 32.7462 76.5277 32.7462 82.6266Z" fill="#FFBB41"/>
<path d="M13.139 64.356C13.139 63.4424 13.139 62.6378 13.139 61.7416C14.7956 61.7416 16.4218 61.7307 18.0457 61.7459C19.3509 61.7568 20.6758 61.6631 21.9571 61.8593C24.6505 62.2736 26.4469 63.8828 27.2087 66.4929C27.9661 69.0899 27.1934 71.3119 25.2508 73.1544C25.1526 73.2482 25.0478 73.3332 24.7444 73.6014C24.9801 73.7366 25.2202 73.8195 25.3883 73.9787C27.3724 75.8343 27.9988 78.5665 27.0319 81.0785C26.0758 83.5621 23.7316 85.2193 21.0425 85.2498C18.432 85.2803 15.8237 85.2564 13.1608 85.2564C13.1608 84.382 13.1608 83.5577 13.1608 82.6463C14.1779 82.6463 15.1776 82.6463 16.1773 82.6463C17.81 82.6463 19.4448 82.6768 21.0775 82.6354C23.2012 82.5809 24.8754 80.819 24.8688 78.7104C24.8601 76.604 23.1772 74.8509 21.0469 74.8204C18.4364 74.7833 15.8259 74.8116 13.163 74.8116C13.163 73.9351 13.163 73.1086 13.163 72.195C14.0121 72.195 14.848 72.195 15.684 72.195C17.4542 72.195 19.2243 72.2168 20.9945 72.1863C23.1729 72.1492 24.8754 70.4004 24.871 68.2613C24.8644 66.1222 23.1532 64.3865 20.9705 64.3626C18.3818 64.3364 15.7997 64.356 13.139 64.356Z" fill="#FFBB41"/>
<path d="M6.52973 59.0966C5.66975 59.0966 4.86433 59.0966 4.00653 59.0966C4.00653 58.2528 4.00653 57.4307 4.00653 56.5607C4.8425 56.5607 5.66757 56.5607 6.52973 56.5607C6.52973 57.4002 6.52973 58.2048 6.52973 59.0966Z" fill="#FFBB41"/>
<path d="M11.7617 56.5585C11.7617 57.4067 11.7617 58.2091 11.7617 59.0704C10.9323 59.0704 10.1072 59.0704 9.23413 59.0704C9.23413 58.2462 9.23413 57.4241 9.23413 56.5585C10.0592 56.5585 10.8624 56.5585 11.7617 56.5585Z" fill="#FFBB41"/>
<path d="M14.442 59.066C14.442 58.22 14.442 57.4175 14.442 56.5649C15.2955 56.5649 16.1183 56.5649 16.9849 56.5649C16.9849 57.3957 16.9849 58.1982 16.9849 59.066C16.1729 59.066 15.3478 59.066 14.442 59.066Z" fill="#FFBB41"/>
<path d="M4 87.9078C4.84034 87.9078 5.64357 87.9078 6.50792 87.9078C6.50792 88.7299 6.50792 89.552 6.50792 90.4285C5.69159 90.4285 4.86871 90.4285 4 90.4285C4 89.613 4 88.8084 4 87.9078Z" fill="#FFBB41"/>
<path d="M11.742 90.4438C10.8711 90.4438 10.0657 90.4438 9.22321 90.4438C9.22321 89.6022 9.22321 88.7976 9.22321 87.9319C10.0395 87.9319 10.8624 87.9319 11.742 87.9319C11.742 88.7409 11.742 89.5629 11.742 90.4438Z" fill="#FFBB41"/>
<path d="M14.4464 90.4394C14.4464 89.5912 14.4464 88.7888 14.4464 87.9275C15.2758 87.9275 16.1009 87.9275 16.974 87.9275C16.974 88.7517 16.974 89.5738 16.974 90.4394C16.1489 90.4394 15.3457 90.4394 14.4464 90.4394Z" fill="#FFBB41"/>
<path d="M24.8688 56.517C24.8688 53.3247 24.8688 50.2524 24.8688 47.18C24.8688 44.7029 24.8623 42.228 24.871 39.7509C24.8797 37.2652 26.532 35.6167 29.0312 35.6167C41.9375 35.6123 54.846 35.6123 67.7523 35.6167C70.2973 35.6167 71.9256 37.2586 71.9256 39.8207C71.9278 62.2714 71.9278 84.7243 71.9256 107.175C71.9256 109.763 70.2864 111.383 67.6715 111.383C54.8198 111.386 41.9659 111.386 29.1142 111.383C26.5037 111.383 24.8732 109.761 24.871 107.166C24.8666 101.859 24.8688 96.5536 24.8688 91.2462C24.8688 91.0304 24.8688 90.8167 24.8688 90.4831C25.194 90.4831 25.4822 90.4831 25.7681 90.4831C29.3084 90.4831 32.8488 90.4896 36.3869 90.4809C44.9649 90.4634 51.8513 84.7047 53.4032 76.2595C55.0184 67.4698 48.7934 58.4642 39.9556 56.8572C38.7835 56.6435 37.5787 56.5432 36.3869 56.5301C32.875 56.4887 29.3608 56.5148 25.8488 56.5148C25.5564 56.517 25.2617 56.517 24.8688 56.517ZM44.4585 38.2398C39.5256 38.2398 34.6626 38.2137 29.7995 38.2595C28.6427 38.2704 27.5819 39.3061 27.5273 40.464C27.4422 42.3 27.5055 44.1447 27.5055 46.0178C28.3851 46.0178 29.2102 46.0178 30.1226 46.0178C30.1226 44.2755 30.1226 42.5791 30.1226 40.7998C34.9551 40.7998 39.6981 40.7998 44.4585 40.7998C44.4585 39.9276 44.4585 39.1426 44.4585 38.2398ZM69.3129 93.1433C68.3722 93.1433 67.5668 93.1433 66.6762 93.1433C66.6762 97.4956 66.6762 101.802 66.6762 106.194C64.8952 106.194 63.1992 106.194 61.512 106.194C61.512 107.088 61.512 107.892 61.512 108.771C63.1512 108.771 64.7489 108.773 66.3467 108.771C68.2849 108.767 69.3086 107.742 69.3108 105.795C69.3151 101.826 69.3108 97.8576 69.3108 93.8869C69.3129 93.6514 69.3129 93.4137 69.3129 93.1433ZM49.6446 40.8063C49.6446 39.9079 49.6446 39.0837 49.6446 38.266C48.7781 38.266 47.9749 38.266 47.1367 38.266C47.1367 39.1273 47.1367 39.9516 47.1367 40.8063C47.988 40.8063 48.7912 40.8063 49.6446 40.8063ZM69.2496 85.2258C69.2496 84.3209 69.2496 83.4967 69.2496 82.6855C68.3809 82.6855 67.5777 82.6855 66.7461 82.6855C66.7461 83.5512 66.7461 84.3732 66.7461 85.2258C67.5995 85.2258 68.4028 85.2258 69.2496 85.2258ZM69.2736 87.9166C68.3722 87.9166 67.5668 87.9166 66.7504 87.9166C66.7504 88.7866 66.7504 89.6087 66.7504 90.4242C67.6279 90.4242 68.453 90.4242 69.2736 90.4242C69.2736 89.5585 69.2736 88.7539 69.2736 87.9166ZM27.5383 93.1346C27.5383 94.0133 27.5383 94.8376 27.5383 95.6465C28.4179 95.6465 29.2429 95.6465 30.0571 95.6465C30.0571 94.7809 30.0571 93.9763 30.0571 93.1346C29.2146 93.1346 28.4091 93.1346 27.5383 93.1346ZM27.5208 100.891C28.4201 100.891 29.2255 100.891 30.0484 100.891C30.0484 100.023 30.0484 99.2008 30.0484 98.3787C29.1731 98.3787 28.3502 98.3787 27.5208 98.3787C27.5208 99.2422 27.5208 100.045 27.5208 100.891ZM27.5273 103.581C27.5273 104.48 27.5273 105.282 27.5273 106.109C28.3939 106.109 29.2167 106.109 30.0418 106.109C30.0418 105.234 30.0418 104.412 30.0418 103.581C29.1775 103.581 28.3742 103.581 27.5273 103.581Z" fill="white"/>
<path d="M73.2418 35.621C75.1648 35.621 76.9349 35.5752 78.7007 35.6341C80.6455 35.6995 82.2324 37.3109 82.3699 39.2515C82.3917 39.5503 82.383 39.849 82.383 40.1499C82.383 62.3804 82.383 84.6087 82.383 106.839C82.383 109.887 80.8769 111.386 77.8146 111.386C76.3456 111.386 74.8767 111.386 73.3269 111.386C73.4033 111.198 73.4404 111.056 73.5147 110.936C74.2371 109.772 74.5471 108.507 74.5449 107.136C74.5362 84.7155 74.5362 62.2953 74.5471 39.8752C74.5493 38.3597 74.1455 36.9925 73.2418 35.621Z" fill="white"/>
<path d="M32.7462 82.6266C32.7462 76.5277 32.7462 70.5007 32.7462 64.393C36.1403 64.1292 39.0454 65.1104 41.1605 67.8339C43.5505 70.9128 43.8954 74.3275 42.0685 77.7662C40.1324 81.4099 36.8867 82.8447 32.7462 82.6266Z" fill="white"/>
<path d="M44.4585 38.2398C44.4585 39.1404 44.4585 39.9275 44.4585 40.7976C39.7002 40.7976 34.955 40.7976 30.1225 40.7976C30.1225 42.5747 30.1225 44.2711 30.1225 46.0156C29.2102 46.0156 28.3851 46.0156 27.5055 46.0156C27.5055 44.1425 27.4422 42.3 27.5273 40.4618C27.5819 39.3039 28.6427 38.2682 29.7995 38.2573C34.6647 38.2158 39.5278 38.2398 44.4585 38.2398Z" fill="#FFBB41"/>
<path d="M69.3129 93.1433C69.3129 93.4137 69.3129 93.6514 69.3129 93.889C69.3129 97.8576 69.3151 101.826 69.3129 105.797C69.3108 107.742 68.2871 108.767 66.3488 108.773C64.7511 108.778 63.1534 108.773 61.5142 108.773C61.5142 107.895 61.5142 107.09 61.5142 106.196C63.2014 106.196 64.8973 106.196 66.6784 106.196C66.6784 101.804 66.6784 97.4978 66.6784 93.1455C67.5646 93.1433 68.37 93.1433 69.3129 93.1433Z" fill="#FFBB41"/>
<path d="M49.6446 40.8063C48.7912 40.8063 47.988 40.8063 47.1367 40.8063C47.1367 39.9515 47.1367 39.1273 47.1367 38.266C47.9749 38.266 48.7781 38.266 49.6446 38.266C49.6446 39.0837 49.6446 39.9079 49.6446 40.8063Z" fill="#FFBB41"/>
<path d="M69.2496 85.2259C68.4028 85.2259 67.5995 85.2259 66.7461 85.2259C66.7461 84.3733 66.7461 83.5512 66.7461 82.6855C67.5755 82.6855 68.3809 82.6855 69.2496 82.6855C69.2496 83.4967 69.2496 84.3209 69.2496 85.2259Z" fill="#FFBB41"/>
<path d="M69.2736 87.9166C69.2736 88.7561 69.2736 89.5586 69.2736 90.4242C68.4529 90.4242 67.6279 90.4242 66.7504 90.4242C66.7504 89.6087 66.7504 88.7867 66.7504 87.9166C67.5668 87.9166 68.3722 87.9166 69.2736 87.9166Z" fill="#FFBB41"/>
<path d="M27.5383 93.1346C28.4092 93.1346 29.2146 93.1346 30.0571 93.1346C30.0571 93.9763 30.0571 94.7809 30.0571 95.6466C29.2408 95.6466 28.4179 95.6466 27.5383 95.6466C27.5383 94.8376 27.5383 94.0134 27.5383 93.1346Z" fill="#FFBB41"/>
<path d="M27.5208 100.891C27.5208 100.045 27.5208 99.2423 27.5208 98.3788C28.3481 98.3788 29.1731 98.3788 30.0484 98.3788C30.0484 99.2008 30.0484 100.023 30.0484 100.891C29.2233 100.891 28.4201 100.891 27.5208 100.891Z" fill="#FFBB41"/>
<path d="M27.5273 103.582C28.3742 103.582 29.1796 103.582 30.0418 103.582C30.0418 104.412 30.0418 105.234 30.0418 106.109C29.2189 106.109 28.3939 106.109 27.5273 106.109C27.5273 105.285 27.5273 104.48 27.5273 103.582Z" fill="#FFBB41"/>
</svg>
