<svg width="59" height="65" viewBox="0 0 59 65" fill="none" xmlns="http://www.w3.org/2000/svg">
<path d="M27.2937 2C47.2866 2 62.8877 28.8155 52.8912 45.9977C42.8948 63.1799 -10.0715 78.3734 1.69611 45.9977C13.4637 13.622 7.30073 2 27.2937 2Z" fill="#13B237" fill-opacity="0.1"/>
<path fill-rule="evenodd" clip-rule="evenodd" d="M31.177 56.2784L31.175 56.3016C31.0156 57.6882 29.9727 58.4237 28.5494 58.4386L28.4851 58.9955C28.4374 59.4089 28.0631 59.7066 27.6469 59.6587C27.2303 59.6119 26.9329 59.2381 26.9806 58.8242L27.0516 58.2057C26.353 57.9905 25.6903 57.6348 25.1286 57.1294C24.9506 56.9719 24.8449 56.7088 24.8765 56.4394C24.9266 55.9894 25.3289 55.6835 25.7802 55.7338C26.0055 55.76 26.1549 55.8559 26.2579 55.947C26.8082 56.4539 27.4303 56.7987 28.1999 56.8862C28.9111 56.9672 29.373 56.7343 29.4267 56.2741L29.4283 56.2509C29.4788 55.8134 29.2334 55.557 27.9506 55.069C26.405 54.4834 25.4263 53.9274 25.6063 52.3633L25.6086 52.3409C25.7483 51.124 26.6883 50.3602 27.962 50.2727L28.0287 49.6867C28.0764 49.272 28.4512 48.9744 28.867 49.0215C29.2839 49.0686 29.5818 49.4429 29.534 49.8575L29.4654 50.4493C30.0749 50.621 30.6145 50.8942 31.0761 51.2665C31.2559 51.3996 31.4215 51.6584 31.3829 51.9958C31.3312 52.4458 30.9293 52.7544 30.4776 52.703C30.3071 52.6838 30.1766 52.6225 30.0516 52.5282C29.5127 52.1258 28.9924 51.8721 28.4496 51.8104C27.7842 51.7346 27.3987 51.9992 27.355 52.3806L27.3526 52.4033C27.2931 52.9205 27.6114 53.1279 28.9391 53.6316C30.495 54.2289 31.3348 54.9067 31.177 56.2784Z" fill="#13B237"/>
<path d="M23.7723 16.3085C20.5425 17.9324 16.6358 21.8741 13.2223 26.7526C10.6457 30.4352 8.37312 34.6299 6.90393 38.7487C10.8035 36.399 15.0028 35.3445 19.0818 35.3758C23.421 35.4091 27.6194 36.6691 31.1744 38.9042C34.7396 41.1457 37.6648 44.3695 39.446 48.3232C41.2433 52.3128 41.8722 57.0311 40.8137 62.2134C44.3447 61.6242 47.0691 60.1269 49.0297 58.0161C51.3359 55.5331 52.6227 52.1702 52.9503 48.4128C53.2851 44.5742 52.6202 40.344 51.0197 36.2168C48.2594 29.0988 42.7305 22.3031 34.7564 18.3387L33.2585 17.594L34.4205 16.3955C34.5846 16.2263 34.6733 16.0873 34.7045 15.9736C34.7303 15.8797 34.7106 15.7756 34.6636 15.6702C34.5786 15.4798 34.4188 15.2854 34.2305 15.1038C33.6847 14.5772 33.0737 14.2575 32.9508 14.224L31.4289 13.8085L32.207 12.4435C33.0125 11.0306 33.845 9.4937 34.6101 7.93865C35.3712 6.39179 36.083 4.79194 36.6614 3.2252C36.9148 2.54118 37.8091 2.56243 37.5009 2.44886C37.404 2.41314 35.9743 3.33341 34.2946 4.41479C31.0929 6.47599 27.1779 8.99618 24.6587 7.58126L24.6566 7.58498C23.0072 6.66012 22.2172 5.19309 21.5342 3.92455C21.116 3.14805 20.7624 2.49117 20.4951 2.44802V2.45055H20.4763L20.4667 2.44576C20.2563 2.44377 19.9358 2.57311 19.4578 2.88118C18.8376 3.28072 18.0666 3.93086 17.0944 4.89704L17.0968 4.89941C15.4009 6.59085 15.9431 8.23294 17.3458 9.65379C19.0938 11.4243 22.0197 12.9374 24.2887 13.9587L23.948 16.2848L23.7723 16.3085H23.7723ZM11.2166 25.355C13.6917 21.8177 16.4505 18.7235 19.0941 16.5398L19.0721 16.539C18.479 16.5171 17.9288 16.4865 17.4288 16.446C17.2815 16.4344 17.2518 16.4323 17.226 16.4305C16.5358 16.3814 15.4632 16.305 14.5452 15.9494C13.8285 19.3341 12.0228 20.4631 9.69543 20.2821C7.45737 20.108 4.81059 18.4666 2.3349 16.5688L3.82244 14.6353C5.9782 16.2877 8.21189 17.7116 9.87781 17.8411C11.091 17.9355 12.0238 17.0302 12.3258 14.3239C12.2495 13.8276 12.4433 13.4034 12.7778 13.0924C12.9248 12.9557 13.1003 12.8509 13.2896 12.7822C13.4559 12.7219 13.6375 12.6902 13.8207 12.6908C14.3852 12.6929 14.9646 12.9784 15.2307 13.6376C15.3514 13.8439 16.7069 13.9403 17.3987 13.9895C17.5274 13.9986 17.6012 14.0035 17.6208 14.0051C18.1815 14.0505 18.6916 14.0808 19.1585 14.0981L19.2252 14.1004C17.883 13.2964 16.5973 12.3783 15.5992 11.3672C13.2329 8.97026 12.3621 6.15647 15.3598 3.16681H15.3646C16.4674 2.07065 17.3727 1.31326 18.1334 0.823167C19.0325 0.243783 19.7952 0.000612347 20.4764 0.00474752V0H20.4951L20.5191 0.00478608C22.2263 0.0413517 22.8968 1.28642 23.6936 2.76628C24.2199 3.74371 24.8286 4.87414 25.8562 5.45031V5.45513C27.0841 6.14598 30.3222 4.06143 32.9702 2.35678C35.2042 0.918544 37.1055 -0.305352 38.3454 0.151546C39.5012 0.577392 39.8254 1.74374 38.9647 4.06752C38.3701 5.67801 37.6196 7.36076 36.8078 9.01069C36.1993 10.2475 35.5659 11.4461 34.9439 12.5702C35.2777 12.7882 35.625 13.049 35.9292 13.3424C36.3219 13.7213 36.6733 14.1674 36.8997 14.6747C37.1642 15.2671 37.2565 15.9184 37.0654 16.6149C37.0523 16.6626 37.038 16.71 37.0225 16.7571C44.9502 21.077 50.4778 28.0488 53.3037 35.336C55.0423 39.8195 55.7634 44.4282 55.3976 48.6232C55.0248 52.8993 53.5245 56.7649 50.8243 59.672C48.1485 62.5529 44.33 64.4622 39.3076 64.8617L37.5682 65L38.0263 63.3206C39.4693 58.0308 38.9849 53.259 37.2099 49.3187C35.6341 45.8212 33.038 42.9639 29.8692 40.9717C26.6903 38.9731 22.9415 37.8464 19.0721 37.8167C14.4685 37.7813 9.68695 39.296 5.479 42.7381L3.51161 41.5033C4.84928 36.0759 7.77718 30.2705 11.2166 25.355H11.2166Z" fill="#13B237"/>
<path d="M27.1449 62.8927L27.1407 62.8922L27.1407 62.8916C24.7736 62.62 22.7393 61.4188 21.3633 59.6958C19.9872 57.9724 19.2707 55.7277 19.5399 53.3707V53.3611L19.5404 53.3569L19.541 53.3569C19.8132 50.9975 21.0198 48.9713 22.7507 47.6022C24.4839 46.2315 26.7414 45.5186 29.1121 45.7883H29.1169L29.1203 45.7886L29.1203 45.7893C31.4877 46.0608 33.5218 47.2615 34.8971 48.9838C36.2731 50.707 36.9889 52.9527 36.7191 55.3127V55.3175L36.7187 55.3209L36.7181 55.3209C36.4459 57.6804 35.2396 59.7076 33.5088 61.0776C31.7765 62.4488 29.5198 63.1623 27.1497 62.8927H27.1449V62.8927ZM27.4286 60.4608L27.4328 60.4613L27.4328 60.4618C29.13 60.6537 30.7445 60.1434 31.9828 59.1632C33.2229 58.1816 34.087 56.729 34.2811 55.0386V55.0338L34.2814 55.0304H34.2819C34.4735 53.3431 33.9614 51.7379 32.9776 50.5058C31.9933 49.2731 30.5355 48.4139 28.8372 48.22H28.8324L28.829 48.2196V48.2191C27.1308 48.0272 25.5154 48.5369 24.2767 49.5167C23.0364 50.4976 22.172 51.9494 21.9781 53.6392V53.644L21.9776 53.6483L21.9766 53.6481C21.7864 55.3363 22.2991 56.9419 23.2828 58.1737C24.2677 59.4071 25.7258 60.267 27.4237 60.4608H27.4285H27.4286Z" fill="#13B237"/>
<path fill-rule="evenodd" clip-rule="evenodd" d="M19.0637 50.3644L19.0617 50.3876C18.9023 51.7742 17.8594 52.5097 16.4361 52.5246L16.3718 53.0815C16.324 53.4949 15.9497 53.7926 15.5336 53.7447C15.117 53.6979 14.8195 53.3241 14.8673 52.9102L14.9383 52.2917C14.2396 52.0765 13.5769 51.7208 13.0152 51.2154C12.8373 51.0579 12.7315 50.7948 12.7631 50.5254C12.8132 50.0754 13.2156 49.7695 13.6669 49.8198C13.8921 49.846 14.0416 49.9419 14.1446 50.033C14.6949 50.5399 15.317 50.8847 16.0865 50.9723C16.7978 51.0532 17.2597 50.8203 17.3134 50.3601L17.315 50.3369C17.3655 49.8994 17.1201 49.643 15.8373 49.155C14.2917 48.5694 13.313 48.0134 13.4929 46.4493L13.4953 46.4269C13.6349 45.21 14.575 44.4462 15.8487 44.3587L15.9154 43.7727C15.9631 43.358 16.3379 43.0604 16.7536 43.1075C17.1706 43.1546 17.4684 43.5289 17.4207 43.9435L17.352 44.5353C17.9615 44.707 18.5011 44.9802 18.9627 45.3525C19.1425 45.4856 19.3082 45.7444 19.2696 46.0818C19.2179 46.5318 18.8159 46.8404 18.3643 46.7889C18.1938 46.7698 18.0633 46.7085 17.9383 46.6142C17.3994 46.2117 16.8791 45.9581 16.3363 45.8964C15.6708 45.8206 15.2854 46.0852 15.2416 46.4666L15.2392 46.4893C15.1797 47.0065 15.498 47.2139 16.8258 47.7176C18.3816 48.3149 19.2215 48.9927 19.0637 50.3644Z" fill="#13B237"/>
<path d="M15.0317 56.9793L15.0275 56.9788L15.0275 56.9782C12.6604 56.7066 10.6261 55.5053 9.25015 53.7823C7.87402 52.0589 7.15754 49.8143 7.42672 47.4572V47.4476L7.42722 47.4434L7.4278 47.4435C7.69997 45.084 8.90658 43.0579 10.6375 41.6888C12.3707 40.318 14.6282 39.6051 16.9989 39.8748H17.0037L17.0072 39.8752L17.0071 39.8758C19.3746 40.1474 21.4086 41.348 22.7839 43.0704C23.3485 43.7771 23.7982 44.5679 24.1167 45.4138C23.3631 45.7191 22.6467 46.1212 21.9874 46.6427L21.9531 46.6701C21.7257 45.9092 21.3533 45.2047 20.8644 44.5924C19.8801 43.3597 18.4223 42.5005 16.724 42.3066H16.7192L16.7158 42.3062V42.3057C15.0176 42.1138 13.4022 42.6235 12.1635 43.6033C10.9232 44.5842 10.0588 46.0359 9.8649 47.7258V47.7306L9.8644 47.7348L9.8634 47.7347C9.67323 49.4229 10.1859 51.0285 11.1696 52.2603C12.1545 53.4937 13.6126 54.3536 15.3106 54.5474H15.3154L15.3196 54.5479L15.3195 54.5484C16.3781 54.668 17.4044 54.5146 18.3274 54.1443C18.3624 54.9828 18.458 55.8188 18.6381 56.6311C17.5096 56.9896 16.2889 57.1218 15.0365 56.9793H15.0317H15.0317Z" fill="#13B237"/>
</svg>
