<svg width="56" height="64" viewBox="0 0 56 64" fill="none" xmlns="http://www.w3.org/2000/svg">
<path d="M27.2937 1C47.2866 1 62.8877 27.8155 52.8912 44.9977C42.8948 62.1799 -10.0715 77.3734 1.69611 44.9977C13.4637 12.622 7.30073 1 27.2937 1Z" fill="#6A4DF4" fill-opacity="0.1"/>
<path d="M5.40641 30.6303H3.41195V19.1576C3.41145 8.59382 12.1058 0 22.792 0C33.4793 0 42.1741 8.59382 42.1741 19.1576V20.6091H40.1787V19.1576C40.1787 9.69379 32.3788 1.99446 22.792 1.99446C13.2052 1.99446 5.40641 9.69379 5.40641 19.1576V30.6303ZM44.5456 63.8301H42.5506V53.9183C42.5506 51.3354 40.0837 49.2344 37.0507 49.2344H8.53484C5.50191 49.2344 3.03346 51.3354 3.03346 53.9183V63.8301H1.039V53.9183C1.039 50.2354 4.40193 47.24 8.53484 47.24H37.0502C41.1831 47.24 44.5451 50.2354 44.5451 53.9183V63.8301H44.5456Z" fill="#6A4DF4"/>
<path d="M23.168 45.9691C15.8907 45.9691 9.55429 41.1072 7.75883 34.1453L9.68979 33.6468C11.2588 39.7277 16.8011 43.9746 23.168 43.9746C30.8368 43.9746 37.0757 37.8168 37.0757 30.2469V19.0912H39.0702V30.2474C39.0707 38.9167 31.9368 45.9691 23.168 45.9691ZM9.1443 20.9211H7.14984V19.7186C7.14984 17.1732 9.2403 15.1027 11.8087 15.1027H37.2452C40.3986 15.1027 42.9636 12.5738 42.9636 9.46637V5.03646H32.9618V3.0415H44.958V9.46637C44.958 13.6743 41.4981 17.0977 37.2452 17.0977H11.8087C10.3398 17.0977 9.1443 18.2737 9.1443 19.7191V20.9211Z" fill="#6A4DF4"/>
<path d="M5.31688 36.4496H4.98539C2.23645 36.4496 0 34.2356 0 31.5142V24.2933C0 21.5719 2.23645 19.3574 4.98539 19.3574H5.31688C8.06533 19.3574 10.3018 21.5719 10.3018 24.2933V31.5142C10.3018 34.2361 8.06533 36.4496 5.31688 36.4496ZM4.98539 21.3524C3.33643 21.3524 1.99496 22.6719 1.99496 24.2933V31.5142C1.99496 33.1356 3.33693 34.4551 4.98539 34.4551H5.31688C6.96585 34.4551 8.30682 33.1356 8.30682 31.5142V24.2933C8.30682 22.6719 6.96535 21.3524 5.31688 21.3524H4.98539ZM39.9616 36.4496H39.6316C38.5582 36.4537 37.5123 36.1099 36.6507 35.4696L37.8402 33.8686C38.3581 34.2529 38.9867 34.4587 39.6316 34.4551H39.9616C41.6116 34.4551 42.9526 33.1356 42.9526 31.5142V24.2933C42.9526 22.6719 41.6111 21.3524 39.9616 21.3524H39.6316C39.1916 21.3508 38.7565 21.4458 38.3572 21.6309L37.5167 19.8219C38.1789 19.514 38.9008 19.3556 39.6311 19.3579H39.9611C42.7106 19.3579 44.9475 21.5724 44.9475 24.2938V31.5142C44.9475 34.2361 42.7111 36.4496 39.9616 36.4496Z" fill="#6A4DF4"/>
<path d="M5.40638 30.6303H3.41193V19.1576C3.41143 8.59382 12.1057 0 22.792 0V1.99446C13.2052 1.99446 5.40638 9.69379 5.40638 19.1576V30.6303ZM25.3255 53.6423H19.6886L17.1546 49.3059L18.8766 48.3005L20.833 51.6479H24.181L26.1379 48.3L27.8604 49.3064L25.3255 53.6423Z" fill="#6A4DF4"/>
<path d="M25.414 52.4508L27.3379 63.6626L25.372 64L23.448 52.7883L25.414 52.4508ZM19.5981 52.4463L21.5641 52.7833L19.6426 63.9961L17.6766 63.6591L19.5981 52.4463ZM37.3107 40.4646H25.9275V38.4701H37.3107C38.8922 38.4701 40.1786 37.2051 40.1786 35.6492H42.1736C42.1741 38.3041 39.9917 40.4646 37.3107 40.4646ZM22.6915 25.0254H24.686V32.8762H22.6915V25.0254Z" fill="#6A4DF4"/>
</svg>
