<svg width="58" height="64" viewBox="0 0 58 64" fill="none" xmlns="http://www.w3.org/2000/svg">
<path d="M27.2937 1C47.2866 1 62.8877 27.8155 52.8912 44.9977C42.8948 62.1799 -10.0715 77.3734 1.69611 44.9977C13.4637 12.622 7.30073 1 27.2937 1Z" fill="#FA6444" fill-opacity="0.1"/>
<g clip-path="url(#clip0_2_234)">
<path fill-rule="evenodd" clip-rule="evenodd" d="M49.87 28.0002C49.9294 25.3487 49.4585 22.7121 48.4849 20.2451C47.5113 17.7781 46.0546 15.5305 44.2004 13.6342C42.3461 11.7379 40.1317 10.2312 37.6872 9.20258C35.2426 8.17393 32.6172 7.64404 29.965 7.64404C27.3128 7.64404 24.6874 8.17393 22.2428 9.20258C19.7983 10.2312 17.5839 11.7379 15.7296 13.6342C13.8754 15.5305 12.4187 17.7781 11.4451 20.2451C10.4715 22.7121 10.0006 25.3487 10.06 28.0002C10.06 36.8902 16.17 44.0002 21.56 50.2002L22.65 51.4702C22.0324 51.7981 21.5154 52.2876 21.1544 52.8865C20.7933 53.4853 20.6017 54.171 20.6 54.8702V60.1502C20.6079 61.1723 21.0188 62.15 21.7434 62.8709C22.468 63.5918 23.4479 63.9976 24.47 64.0002H35.47C36.499 64.0002 37.4859 63.5914 38.2136 62.8638C38.9412 62.1362 39.35 61.1493 39.35 60.1202V54.8402C39.3482 54.1372 39.1544 53.448 38.7896 52.8471C38.4248 52.2461 37.9028 51.7562 37.28 51.4302L38.28 50.1902C43.74 43.7802 49.87 36.5102 49.87 28.0002ZM12.06 28.0002C12.0036 25.6133 12.425 23.2392 13.2994 21.0175C14.1739 18.7958 15.4838 16.7714 17.152 15.0633C18.8202 13.3552 20.8131 11.9978 23.0135 11.0711C25.2139 10.1444 27.5774 9.66705 29.965 9.66705C32.3526 9.66705 34.7161 10.1444 36.9165 11.0711C39.1169 11.9978 41.1098 13.3552 42.778 15.0633C44.4462 16.7714 45.7561 18.7958 46.6305 21.0175C47.505 23.2392 47.9264 25.6133 47.87 28.0002C47.87 35.8202 41.99 42.7902 36.81 48.9402L35.08 51.0002H24.87L23.06 48.9002C17.65 42.5902 12.06 36.1102 12.06 28.0002ZM35.49 62.0002H24.49C24.2431 62.0002 23.9986 61.9516 23.7705 61.8571C23.5425 61.7626 23.3352 61.6242 23.1606 61.4496C22.9861 61.275 22.8476 61.0678 22.7531 60.8397C22.6586 60.6116 22.61 60.3671 22.61 60.1202V58.4802H37.37V60.1202C37.37 60.3671 37.3214 60.6116 37.2269 60.8397C37.1324 61.0678 36.9939 61.275 36.8194 61.4496C36.6448 61.6242 36.4375 61.7626 36.2094 61.8571C35.9813 61.9516 35.7369 62.0002 35.49 62.0002ZM37.37 56.4802H22.59V54.8402C22.6005 54.3486 22.8031 53.8806 23.1546 53.5366C23.506 53.1927 23.9782 53.0001 24.47 53.0002H35.47C35.9686 53.0002 36.4468 53.1983 36.7994 53.5509C37.1519 53.9034 37.35 54.3816 37.35 54.8802L37.37 56.4802Z" fill="#FA6444"/>
<path fill-rule="evenodd" clip-rule="evenodd" d="M29.86 42.12C32.6772 42.1219 35.4319 41.2898 37.777 39.7287C40.1221 38.1675 41.9527 35.9472 43.038 33.3474C44.1233 30.7477 44.4148 27.8848 43.8758 25.1197C43.3367 22.3545 41.9913 19.8108 40.009 17.809C38.0267 15.8072 35.4962 14.437 32.7364 13.871C29.9767 13.305 27.1111 13.5685 24.5009 14.6284C21.8907 15.6882 19.6525 17.497 18.0686 19.8267C16.4846 22.1565 15.6257 24.9029 15.6 27.72C15.5843 27.7563 15.5762 27.7954 15.5762 27.835C15.5762 27.8746 15.5843 27.9137 15.6 27.95C15.629 31.7147 17.1435 35.3157 19.8141 37.9694C22.4847 40.6231 26.0952 42.1148 29.86 42.12ZM28.86 15.64V17.35C28.86 17.6152 28.9654 17.8696 29.1529 18.0571C29.3404 18.2446 29.5948 18.35 29.86 18.35C30.1252 18.35 30.3796 18.2446 30.5671 18.0571C30.7546 17.8696 30.86 17.6152 30.86 17.35V15.64C33.7646 15.8701 36.4925 17.1264 38.5556 19.1839C40.6186 21.2415 41.8821 23.966 42.12 26.87H40.39C40.1248 26.87 39.8704 26.9754 39.6829 27.1629C39.4954 27.3504 39.39 27.6048 39.39 27.87C39.39 28.1352 39.4954 28.3896 39.6829 28.5771C39.8704 28.7646 40.1248 28.87 40.39 28.87H42.12C41.8757 31.767 40.6106 34.4832 38.5503 36.5344C36.4899 38.5856 33.7681 39.8386 30.87 40.07V38.36C30.87 38.0948 30.7646 37.8404 30.5771 37.6529C30.3896 37.4654 30.1352 37.36 29.87 37.36C29.6048 37.36 29.3504 37.4654 29.1629 37.6529C28.9754 37.8404 28.87 38.0948 28.87 38.36V40.08C25.9781 39.8315 23.2679 38.5659 21.221 36.508C19.1741 34.4501 17.923 31.7332 17.69 28.84H19.39C19.6552 28.84 19.9096 28.7346 20.0971 28.5471C20.2846 28.3596 20.39 28.1052 20.39 27.84C20.39 27.5748 20.2846 27.3204 20.0971 27.1329C19.9096 26.9454 19.6552 26.84 19.39 26.84H17.69C17.933 23.9492 19.1924 21.2381 21.2446 19.1877C23.2967 17.1374 26.009 15.8804 28.9 15.64H28.86ZM30 4.42C30.2652 4.42 30.5196 4.31464 30.7071 4.12711C30.8946 3.93957 31 3.68522 31 3.42V1C31 0.734784 30.8946 0.48043 30.7071 0.292893C30.5196 0.105357 30.2652 0 30 0C29.7348 0 29.4804 0.105357 29.2929 0.292893C29.1054 0.48043 29 0.734784 29 1V3.42C29 3.68522 29.1054 3.93957 29.2929 4.12711C29.4804 4.31464 29.7348 4.42 30 4.42ZM46 10.2C46.1316 10.2008 46.2621 10.1755 46.3839 10.1258C46.5057 10.076 46.6166 10.0027 46.71 9.91L48.4 8.19C48.5534 7.99831 48.6309 7.75691 48.6177 7.51176C48.6046 7.26662 48.5018 7.03488 48.3288 6.86067C48.1558 6.68647 47.9248 6.58197 47.6798 6.5671C47.4347 6.55222 47.1928 6.628 47 6.78L45.27 8.49C45.1276 8.63105 45.031 8.81162 44.9925 9.00829C44.954 9.20496 44.9755 9.40866 45.0542 9.59296C45.1328 9.77727 45.2651 9.93369 45.4337 10.0419C45.6024 10.1502 45.7997 10.2052 46 10.2ZM12.44 10.2C12.6386 10.2012 12.8331 10.1431 12.9986 10.0333C13.1641 9.92353 13.2932 9.76693 13.3694 9.58348C13.4455 9.40004 13.4654 9.19807 13.4263 9.00332C13.3872 8.80857 13.291 8.62987 13.15 8.49L11.44 6.78C11.253 6.58904 10.9978 6.48019 10.7306 6.47737C10.4634 6.47456 10.206 6.57802 10.015 6.765C9.82404 6.95198 9.71519 7.20715 9.71237 7.47439C9.70956 7.74163 9.81302 7.99904 10 8.19L11.73 9.91C11.8234 10.0027 11.9343 10.076 12.0561 10.1258C12.1779 10.1755 12.3084 10.2008 12.44 10.2ZM56.94 26.2H54.34C54.0748 26.2 53.8204 26.3054 53.6329 26.4929C53.4454 26.6804 53.34 26.9348 53.34 27.2C53.34 27.4652 53.4454 27.7196 53.6329 27.9071C53.8204 28.0946 54.0748 28.2 54.34 28.2H56.94C57.2052 28.2 57.4596 28.0946 57.6471 27.9071C57.8346 27.7196 57.94 27.4652 57.94 27.2C57.94 26.9348 57.8346 26.6804 57.6471 26.4929C57.4596 26.3054 57.2052 26.2 56.94 26.2ZM5.6 26.2H3C2.73478 26.2 2.48043 26.3054 2.29289 26.4929C2.10536 26.6804 2 26.9348 2 27.2C2 27.4652 2.10536 27.7196 2.29289 27.9071C2.48043 28.0946 2.73478 28.2 3 28.2H5.6C5.86522 28.2 6.11957 28.0946 6.30711 27.9071C6.49464 27.7196 6.6 27.4652 6.6 27.2C6.6 26.9348 6.49464 26.6804 6.30711 26.4929C6.11957 26.3054 5.86522 26.2 5.6 26.2Z" fill="#FA6444"/>
<path fill-rule="evenodd" clip-rule="evenodd" d="M28.6 32.82L28.91 32.91V33.91C28.9007 34.0598 28.9331 34.2093 29.0037 34.3417C29.0744 34.4741 29.1804 34.5843 29.31 34.66C29.4428 34.749 29.5969 34.8009 29.7565 34.8106C29.9161 34.8202 30.0753 34.7872 30.2179 34.7149C30.3604 34.6426 30.4812 34.5336 30.5677 34.3992C30.6542 34.2648 30.7033 34.1097 30.71 33.95V32.9L31 32.8C31.5764 32.6158 32.087 32.2684 32.47 31.8C32.7705 31.5007 33.0002 31.1378 33.1421 30.738C33.284 30.3383 33.3345 29.9118 33.29 29.49C33.2094 28.9044 32.9576 28.3556 32.5662 27.9126C32.1748 27.4696 31.6612 27.1521 31.09 27C30.76 26.91 30.42 26.87 30.09 26.79C29.76 26.71 28.98 26.51 28.74 26.07C28.6799 25.9596 28.6489 25.8357 28.65 25.71C28.6413 25.558 28.6674 25.4061 28.7263 25.2657C28.7852 25.1253 28.8754 25.0002 28.99 24.9C29.1925 24.7827 29.4179 24.7104 29.6508 24.6879C29.8838 24.6655 30.1188 24.6935 30.34 24.77C30.704 24.8615 31.0447 25.0285 31.34 25.26C31.4959 25.4065 31.6946 25.4991 31.907 25.5243C32.1193 25.5495 32.3342 25.5059 32.52 25.4C32.6395 25.3168 32.7372 25.2062 32.8051 25.0775C32.8729 24.9487 32.9089 24.8056 32.91 24.66C32.9023 24.4674 32.8537 24.2787 32.7675 24.1063C32.6813 23.9339 32.5595 23.7817 32.41 23.66C31.9966 23.3352 31.5143 23.1094 31 23L30.68 22.91V21.71C30.6859 21.5943 30.6645 21.4788 30.6176 21.3729C30.5707 21.2669 30.4996 21.1735 30.41 21.1C29.94 20.74 28.88 20.87 28.88 21.61V22.86L28.57 22.95C27.8608 23.1512 27.258 23.6212 26.89 24.26C26.5101 24.9154 26.3687 25.6822 26.49 26.43C26.5215 26.7214 26.6166 27.0024 26.7687 27.2529C26.9208 27.5035 27.126 27.7176 27.37 27.88C27.8812 28.1455 28.4314 28.3278 29 28.42C29.3761 28.5021 29.7417 28.6262 30.09 28.79C30.266 28.88 30.4305 28.9908 30.58 29.12C30.762 29.2513 30.9015 29.433 30.9815 29.6427C31.0614 29.8524 31.0783 30.0809 31.03 30.3C30.9379 30.5255 30.7838 30.7203 30.5856 30.8619C30.3874 31.0034 30.1532 31.086 29.91 31.1C29.5946 31.1205 29.2787 31.066 28.9884 30.9408C28.6982 30.8156 28.4417 30.6235 28.24 30.38C28.0534 30.1016 27.7731 29.8993 27.45 29.81C27.3306 29.7829 27.207 29.7805 27.0866 29.8029C26.9662 29.8252 26.8517 29.8719 26.75 29.94C26.6403 30.015 26.5467 30.1111 26.4746 30.2227C26.4025 30.3343 26.3533 30.4592 26.33 30.59C26.3094 30.7491 26.3209 30.9108 26.3638 31.0653C26.4068 31.2199 26.4803 31.3643 26.58 31.49C27.0821 32.1506 27.7948 32.6199 28.6 32.82Z" fill="#FA6444"/>
</g>
<defs>
<clipPath id="clip0_2_234">
<rect width="55.94" height="64" fill="white" transform="translate(2)"/>
</clipPath>
</defs>
</svg>
