<svg width="88" height="114" viewBox="0 0 88 114" fill="none" xmlns="http://www.w3.org/2000/svg">
<path d="M42.8901 0C74.3075 0 98.8235 42.5644 83.1148 69.8377C67.4061 97.111 -15.8266 121.228 2.66532 69.8377C21.1573 18.4477 11.4726 0 42.8901 0Z" fill="#4756DF" fill-opacity="0.1"/>
<path d="M39.6079 51.6543L74.7684 33.188L75.5595 34.6754L74.7684 33.188C75.0275 33.0545 75.3167 32.9902 75.6081 33.0012C75.8994 33.0123 76.1829 33.0984 76.4312 33.2512C76.6794 33.4039 76.8841 33.6182 77.0252 33.8733C77.1664 34.1284 77.2393 34.4156 77.2369 34.7071V103.303C77.2336 103.603 77.1509 103.896 76.9972 104.153C76.8436 104.41 76.6245 104.622 76.3622 104.767C76.1 104.912 75.804 104.984 75.5046 104.977C75.2051 104.97 74.9128 104.884 74.6576 104.727L39.6079 86.3242H2.9759C2.53233 86.3201 2.10809 86.1421 1.79442 85.8284C1.48075 85.5147 1.30271 85.0905 1.29858 84.6469V53.3475C1.29858 52.4139 2.0423 51.6543 2.9759 51.6543H39.6079ZM73.8664 37.4604L40.9055 54.7874C40.6395 54.9529 40.3326 55.0406 40.0194 55.0406H4.66905V82.9379H39.9877C40.2567 82.9379 40.5415 83.0012 40.7947 83.1278L40.0035 84.6311L40.7947 83.1436L73.8664 100.502V37.4604Z" fill="#4756DF"/>
<path d="M15.3501 82.938H31.8226L31.3005 85.0267L24.5279 112.718L24.2114 114H6.40967L6.93185 111.927L13.7044 84.2355L14.0209 82.938H15.3501ZM27.5344 86.3084H16.6635L10.6979 110.63H21.5688L27.5344 86.3084ZM17.154 58.4902H31.7594V61.8765H17.154V58.4902Z" fill="#4756DF"/>
</svg>
