<svg width="88" height="114" viewBox="0 0 88 114" fill="none" xmlns="http://www.w3.org/2000/svg">
<path d="M42.8901 0C74.3075 0 98.8235 42.5644 83.1148 69.8377C67.4061 97.111 -15.8266 121.228 2.66532 69.8377C21.1573 18.4477 11.4726 0 42.8901 0Z" fill="#13B237" fill-opacity="0.1"/>
<g clip-path="url(#clip0_333_333)">
<path d="M59.3405 97.7964C59.7933 97.7964 60.1051 97.7964 60.4169 97.7964C66.1798 97.7964 71.9427 97.8009 77.7057 97.7941C82.0296 97.7896 84.9815 94.9159 84.9884 90.7032C84.9954 86.991 84.9908 83.281 84.9884 79.5687C84.9884 78.8655 85.0185 78.16 84.97 77.4613C84.9191 76.7153 84.3186 76.2036 83.5979 76.2081C82.875 76.2126 82.3137 76.7265 82.2352 77.4748C82.2098 77.725 82.2236 77.9797 82.2236 78.2344C82.2236 82.3118 82.2236 86.3892 82.2236 90.4666C82.2236 93.5162 80.6068 95.1007 77.4955 95.1007C55.2799 95.1007 33.0644 95.1007 10.8465 95.1007C7.03072 95.1007 4.76713 92.8986 4.76482 89.1863C4.76251 75.577 4.76482 61.9677 4.76482 48.3584C4.76482 45.4283 6.41632 43.8099 9.40519 43.8099C16.8681 43.8077 24.3311 43.8099 31.794 43.8077C32.0827 43.8077 32.3784 43.8347 32.6555 43.7761C33.3531 43.6296 33.785 43.1901 33.7943 42.4846C33.8035 41.7386 33.3669 41.281 32.6255 41.1345C32.376 41.0849 32.1081 41.1097 31.8494 41.1097C24.3565 41.1097 16.8658 41.1075 9.37285 41.1097C4.93113 41.112 2.00231 43.9564 2.00231 48.2795C2 61.9452 2 75.6108 2.00231 89.2742C2.00462 94.3366 5.55246 97.7919 10.7472 97.7941C16.0481 97.7986 21.3514 97.7941 26.6524 97.7964C26.9504 97.7964 27.246 97.8212 27.6225 97.8392C27.4308 98.2089 27.3084 98.4929 27.1444 98.7498C24.2825 103.258 20.1272 105.658 14.7085 105.877C12.0661 105.983 10.3176 107.594 10.3014 110.159C10.2968 110.806 10.2991 111.453 10.3014 112.1C10.3037 113.588 10.7195 113.991 12.2555 113.991C19.2564 113.991 26.2597 113.991 33.2607 113.991C33.5194 113.991 33.7873 114.016 34.0368 113.962C34.7367 113.813 35.1455 113.38 35.1871 112.675C35.2263 112.01 34.7205 111.426 34.0183 111.318C33.7365 111.275 33.4432 111.293 33.1568 111.293C26.7887 111.293 20.4206 111.293 14.0525 111.293C13.7453 111.293 13.4381 111.293 13.1447 111.293C12.8814 109.357 13.1424 108.566 15.4846 108.57C34.2424 108.613 53.0002 108.593 71.7603 108.595C72.049 108.595 72.3377 108.577 72.6241 108.606C73.3425 108.681 73.8021 109.08 73.8991 109.772C73.9661 110.256 73.913 110.757 73.913 111.293C73.4672 111.293 73.123 111.293 72.7812 111.293C61.8882 111.293 50.9976 111.293 40.1046 111.293C39.7882 111.293 39.4625 111.261 39.1553 111.318C38.4115 111.455 37.975 111.915 37.9819 112.663C37.9888 113.371 38.4161 113.813 39.116 113.957C39.4209 114.02 39.7466 113.989 40.063 113.989C51.5612 113.991 63.057 113.989 74.5551 113.989C74.6706 113.989 74.7861 113.989 74.9016 113.989C76.2089 113.98 76.6847 113.527 76.694 112.278C76.6986 111.717 76.694 111.153 76.694 110.592C76.694 107.434 75.1095 105.902 71.8642 105.884C71.1251 105.879 70.3467 105.906 69.6537 105.699C68.4758 105.349 67.3347 104.858 66.2052 104.371C63.1355 103.05 60.8812 100.902 59.3405 97.7964Z" fill="white"/>
<path d="M37.0141 46.4291C34.2724 46.8776 31.3528 47.3712 28.4263 47.8175C27.6202 47.9415 27.1398 48.3021 26.8603 49.0481C25.8509 51.7371 24.7953 54.408 23.779 57.0947C23.0283 59.0849 23.7906 61.0278 25.6153 61.8731C27.4193 62.707 29.4103 62.0804 30.5352 60.3066C31.1565 59.3261 31.8587 58.3795 32.3345 57.3359C32.8796 56.139 33.7065 55.7311 34.9607 55.9655C35.0162 55.9768 35.0716 55.9903 35.1455 56.0083C35.1778 56.1052 35.2125 56.2089 35.2518 56.3126C35.5151 57.0046 36.0209 57.3945 36.7762 57.275C37.5639 57.1533 37.9519 56.6259 37.9611 55.8438C37.9658 55.535 37.9658 55.2262 37.9635 54.9152C37.9473 53.7499 37.4692 53.2675 36.2935 53.2563C35.1409 53.2472 33.986 53.2856 32.8357 53.2427C31.9834 53.2134 31.436 53.5515 31.0179 54.2638C30.1286 55.7739 29.1816 57.2502 28.2739 58.7514C27.932 59.3149 27.507 59.7296 26.8118 59.4095C26.1142 59.0895 26.165 58.5102 26.4076 57.8926C27.1675 55.952 27.9967 54.0316 28.6227 52.0504C29.0222 50.7859 29.6644 50.2067 31.041 50.0872C33.099 49.9069 35.1293 49.3412 37.1874 49.242C40.2917 49.0932 43.4099 49.1879 46.5212 49.2217C46.9116 49.2262 47.3643 49.3907 47.6738 49.6251C49.584 51.0722 51.4734 52.5485 53.3467 54.0451C53.9287 54.5117 54.5177 54.6514 55.2615 54.5342C57.1925 54.23 59.135 53.9798 61.0752 53.7251C62.1008 53.5898 62.7752 54.0339 62.8492 54.8498C62.9208 55.6184 62.3595 56.1706 61.3917 56.2901C59.2205 56.5583 57.047 56.804 54.8804 57.1082C53.931 57.2412 53.1111 57.1398 52.2888 56.5853C51.1547 55.8212 49.9374 55.1721 48.7479 54.4846C47.2788 53.6349 46.2695 54.1939 46.2625 55.8528C46.2579 57.2187 46.2625 58.5868 46.2625 60.0046C45.8375 60.0046 45.5257 60.0046 45.2116 60.0046C42.4167 60.0046 39.6219 60 36.827 60.0068C35.8038 60.0091 35.358 60.3832 35.1871 61.3637C34.8291 63.4125 34.471 65.4614 34.1454 67.5147C34.0553 68.0849 33.8312 68.3329 33.2053 68.4704C29.8468 69.2119 26.4699 69.6334 23.0168 69.4644C21.8827 69.408 21.3722 69.9467 21.3699 71.0444C21.3607 74.0241 21.3607 77.0061 21.3699 79.9858C21.3745 81.1195 21.9358 81.6627 23.0861 81.5816C25.5945 81.408 27.5394 80.2698 28.752 78.115C29.1123 77.4726 29.5304 77.272 30.2141 77.2112C33.397 76.9362 36.5753 76.5688 39.7628 76.3411C41.1325 76.2442 41.9432 75.7258 42.5022 74.4771C43.3961 72.4801 44.4771 70.562 45.5026 68.565C46.5744 69.0857 47.5976 69.5365 48.5631 70.0819C48.8749 70.2577 49.1821 70.6544 49.2491 70.9948C49.6695 73.1473 50.016 75.3111 50.3948 77.4704C50.5842 78.5455 51.0092 78.8881 52.1502 78.8949C53.446 78.9016 54.7441 78.8746 56.0399 78.9084C57.823 78.9535 59.4099 80.1142 59.7125 81.5973C57.1994 81.5973 54.6979 81.5951 52.1964 81.5996C51.0461 81.6018 50.3994 82.1112 50.4202 82.979C50.441 83.8152 51.0692 84.2953 52.1733 84.2976C55.0836 84.3021 57.994 84.2998 60.9043 84.2976C62.505 84.2976 63.0478 83.698 62.8122 82.1563C62.4565 79.837 61.2508 78.0767 59.1073 76.979C58.6569 76.7491 58.419 76.5012 58.3658 75.976C58.0563 73.0121 57.6798 70.0571 57.3796 67.0932C57.301 66.3246 57.0077 65.7927 56.3448 65.3689C54.0766 63.9264 51.8314 62.4546 49.5863 60.9783C49.3669 60.834 49.0759 60.6019 49.062 60.3945C49.002 59.5763 49.0366 58.7514 49.0366 57.8047C49.8289 58.2645 50.5033 58.5891 51.0992 59.0173C52.2264 59.8288 53.3975 60.0857 54.8134 59.8468C57.308 59.4275 59.8464 59.2585 62.341 58.8438C64.5723 58.4741 65.9651 56.4095 65.5955 54.2953C65.2259 52.1698 63.2257 50.7273 60.999 51.0091C59.2574 51.23 57.5182 51.4711 55.7835 51.7348C55.2014 51.8227 54.7533 51.7033 54.2891 51.3291C52.626 49.9835 50.9491 48.6537 49.2283 47.3802C48.5977 46.9137 47.8332 46.6251 47.1241 46.2532C47.265 45.6221 47.5953 44.7837 47.6138 43.9407C47.6807 40.7919 47.653 37.6432 47.6392 34.4922C47.6346 33.541 47.1079 33.0339 46.1401 33.0136C45.1908 32.9933 44.2368 32.991 43.2875 33.0158C40.0607 33.1015 37.259 35.369 36.7531 38.4839C36.5198 39.9129 36.5568 41.3983 36.603 42.8543C36.6376 44.0421 36.8686 45.2187 37.0141 46.4291Z" fill="white"/>
<path d="M53.2196 89.698C59.4422 89.698 65.6671 89.698 71.8897 89.698C72.1484 89.698 72.4117 89.7137 72.6657 89.6844C73.4141 89.5943 73.9615 89.0037 73.913 88.3118C73.8622 87.5702 73.4234 87.1285 72.6727 87.018C72.3909 86.9752 72.0975 87.0022 71.8088 87.0022C59.3336 87.0022 46.8585 87 34.3833 87.009C33.859 87.009 33.531 86.9301 33.2422 86.4004C32.4939 85.0278 31.2443 84.311 29.6482 84.32C28.0521 84.3268 26.8164 85.0571 26.068 86.4297C25.8001 86.9211 25.5021 87.0158 24.9963 87.0135C22.5179 86.9932 20.0418 87 17.5634 87.0067C16.4708 87.009 15.8403 87.5094 15.8403 88.3524C15.838 89.1953 16.4709 89.7002 17.5611 89.7025C20.0395 89.7092 22.5179 89.716 24.994 89.6935C25.5021 89.689 25.7978 89.7949 26.0634 90.2795C26.8141 91.6499 28.0475 92.3824 29.6436 92.3914C31.2397 92.4005 32.4893 91.6882 33.2446 90.3178C33.5287 89.8039 33.8405 89.6935 34.3787 89.6957C40.6567 89.7047 46.9393 89.698 53.2196 89.698Z" fill="white"/>
<path d="M79.4588 70.8302C79.4588 67.3727 79.4611 63.9129 79.4588 60.4553C79.4565 59.1142 79.0061 58.6612 77.671 58.6567C76.0565 58.6522 74.4442 58.6477 72.8297 58.6589C71.654 58.6657 71.162 59.1503 71.162 60.3156C71.1574 67.3163 71.1574 74.3171 71.162 81.3201C71.162 82.4696 71.6656 82.9429 72.8597 82.9497C74.4743 82.9587 76.0865 82.9565 77.7011 82.9497C78.9853 82.9452 79.4565 82.4786 79.4588 81.2051C79.4611 77.7453 79.4588 74.2878 79.4588 70.8302Z" fill="white"/>
<path d="M65.2836 41.1074C60.992 41.1074 56.7027 41.1074 52.4111 41.1074C52.1247 41.1074 51.8268 41.0804 51.5496 41.1412C50.852 41.2945 50.434 41.7363 50.427 42.444C50.4201 43.154 50.8359 43.6025 51.5265 43.7671C51.8268 43.837 52.1571 43.8054 52.4735 43.8054C60.8257 43.8077 69.1756 43.8054 77.5278 43.8077C80.586 43.8077 82.2259 45.4012 82.2259 48.3787C82.2282 56.0781 82.2259 63.7776 82.2259 71.4771C82.2259 71.7588 82.1982 72.0451 82.249 72.3178C82.3853 73.0458 82.8473 73.4831 83.6095 73.4831C84.3717 73.4831 84.8291 73.0413 84.97 72.3178C85.0139 72.0992 84.9908 71.8693 84.9908 71.6439C84.9908 63.8317 84.9954 56.0195 84.9885 48.2074C84.9838 43.988 82.0388 41.1142 77.7218 41.1074C73.5758 41.1029 69.4297 41.1074 65.2836 41.1074Z" fill="white"/>
<path d="M11.6919 55.9564C10.798 55.9564 9.90642 55.9384 9.01253 55.9609C8.12326 55.9835 7.54813 56.5289 7.5412 57.2953C7.53658 58.0616 8.11402 58.6341 8.99636 58.6454C10.7818 58.6679 12.5696 58.6679 14.3551 58.6454C15.2374 58.6341 15.8218 58.0729 15.8264 57.311C15.831 56.5447 15.2513 55.9857 14.3712 55.9609C13.4774 55.9384 12.5835 55.9564 11.6919 55.9564Z" fill="white"/>
<path d="M11.6503 64.0526C12.5442 64.0526 13.4358 64.0684 14.3297 64.0481C15.2212 64.0278 15.8079 63.4959 15.8264 62.7363C15.8472 61.9452 15.242 61.3704 14.3089 61.3614C12.5511 61.3434 10.7934 61.3434 9.03792 61.3614C8.14404 61.3704 7.56197 61.9091 7.54349 62.671C7.5227 63.4643 8.12556 64.0278 9.05871 64.0481C9.92027 64.0684 10.7841 64.0526 11.6503 64.0526Z" fill="white"/>
<path d="M11.6041 69.4508C12.5257 69.4508 13.4473 69.4711 14.3689 69.444C15.249 69.4192 15.8287 68.8557 15.8241 68.0917C15.8195 67.3276 15.2374 66.7686 14.3528 66.7596C12.5673 66.7393 10.7795 66.7371 8.99406 66.7596C8.11172 66.7709 7.53427 67.3411 7.5412 68.1074C7.54582 68.8738 8.12558 69.4192 9.01254 69.4418C9.8764 69.4688 10.7403 69.4508 11.6041 69.4508Z" fill="white"/>
<path d="M10.9712 74.8513C11.6341 74.8513 12.297 74.8671 12.9599 74.8468C13.8469 74.8198 14.4313 74.2833 14.4428 73.5215C14.4544 72.7551 13.8769 72.1781 12.9992 72.1623C11.6757 72.1375 10.3499 72.1398 9.02406 72.1601C8.1348 72.1736 7.55273 72.719 7.54118 73.4831C7.52963 74.2765 8.13018 74.8243 9.07026 74.8491C9.70314 74.8648 10.336 74.8513 10.9712 74.8513Z" fill="white"/>
<path d="M10.3776 80.2427C10.8396 80.2427 11.3015 80.2743 11.7589 80.236C12.5257 80.1728 13.0546 79.6094 13.0593 78.9084C13.0639 78.2052 12.5396 77.6079 11.7773 77.5718C10.8003 77.5267 9.81863 77.5267 8.84159 77.5696C8.07243 77.6034 7.54811 78.1871 7.54349 78.8926C7.53887 79.5936 8.06319 80.1728 8.82542 80.2337C9.33819 80.2765 9.86021 80.2427 10.3776 80.2427Z" fill="white"/>
<path d="M59.3405 97.7964C60.8789 100.9 63.1355 103.05 66.2029 104.376C67.3324 104.865 68.4735 105.354 69.6515 105.703C70.3444 105.908 71.1228 105.884 71.8619 105.888C75.1072 105.906 76.6917 107.437 76.6917 110.597C76.6917 111.158 76.6963 111.721 76.6917 112.283C76.6801 113.533 76.2066 113.984 74.8993 113.993C74.7838 113.993 74.6683 113.993 74.5528 113.993C63.0547 113.993 51.5589 113.993 40.0607 113.993C39.7443 113.993 39.4186 114.025 39.1137 113.962C38.4162 113.815 37.9865 113.376 37.9796 112.668C37.9727 111.92 38.4092 111.462 39.153 111.322C39.4602 111.266 39.7859 111.298 40.1023 111.298C50.9953 111.298 61.8859 111.298 72.7789 111.298C73.1208 111.298 73.4649 111.298 73.9107 111.298C73.9107 110.761 73.9661 110.261 73.8968 109.776C73.7998 109.084 73.3425 108.683 72.6218 108.611C72.3354 108.582 72.0467 108.6 71.758 108.6C53.0002 108.6 34.2424 108.618 15.4822 108.575C13.1401 108.57 12.8791 109.361 13.1424 111.298C13.4358 111.298 13.743 111.298 14.0502 111.298C20.4183 111.298 26.7864 111.298 33.1545 111.298C33.4432 111.298 33.7342 111.28 34.016 111.322C34.7182 111.431 35.224 112.014 35.1848 112.679C35.1432 113.385 34.7343 113.82 34.0345 113.966C33.785 114.018 33.5171 113.996 33.2584 113.996C26.2574 113.998 19.2541 113.998 12.2532 113.996C10.7171 113.996 10.3037 113.592 10.2991 112.104C10.2968 111.458 10.2945 110.811 10.2991 110.164C10.3152 107.599 12.0638 105.987 14.7062 105.881C20.1249 105.663 24.2802 103.262 27.1421 98.7544C27.3061 98.4974 27.4285 98.2134 27.6202 97.8438C27.2437 97.8257 26.948 97.801 26.6501 97.801C21.3491 97.7987 16.0458 97.8032 10.7449 97.7987C5.55015 97.7942 2.00231 94.3389 2 89.2788C2 75.6109 2 61.9452 2.00231 48.2795C2.00231 43.9564 4.93112 41.1097 9.37516 41.1097C16.8681 41.1075 24.3588 41.1097 31.8517 41.1097C32.1104 41.1097 32.3784 41.0849 32.6278 41.1345C33.3693 41.2833 33.8058 41.7386 33.7966 42.4846C33.7873 43.1901 33.3577 43.6296 32.6578 43.7761C32.3807 43.8347 32.085 43.8077 31.7963 43.8077C24.3334 43.8099 16.8704 43.8077 9.4075 43.8099C6.41863 43.8099 4.76713 45.4283 4.76713 48.3584C4.76713 61.9677 4.76713 75.577 4.76713 89.1864C4.76713 92.8986 7.03072 95.1007 10.8488 95.1007C33.0644 95.1007 55.2799 95.1007 77.4978 95.1007C80.6091 95.1007 82.2259 93.5162 82.2259 90.4666C82.2259 86.3892 82.2259 82.3118 82.2259 78.2345C82.2259 77.982 82.2121 77.7273 82.2375 77.4749C82.316 76.7266 82.8796 76.2127 83.6003 76.2082C84.3209 76.2036 84.9215 76.7153 84.9723 77.4613C85.0208 78.1623 84.9908 78.8656 84.9908 79.5688C84.9908 83.281 84.9977 86.991 84.9908 90.7033C84.9815 94.9159 82.0296 97.7919 77.708 97.7942C71.9451 97.801 66.1821 97.7964 60.4192 97.7964C60.1051 97.7964 59.7956 97.7964 59.3405 97.7964ZM23.9153 105.848C37.058 105.848 49.9628 105.848 62.9415 105.848C62.8329 105.728 62.7937 105.656 62.7313 105.615C59.8787 103.79 57.8276 101.324 56.4903 98.2675C56.3933 98.0466 55.996 97.819 55.7373 97.8167C47.5906 97.7942 39.444 97.801 31.2951 97.7852C30.8077 97.7852 30.5929 97.943 30.4104 98.3667C30.0847 99.1128 29.7175 99.8498 29.2925 100.546C27.9875 102.676 26.2251 104.385 23.9153 105.848Z" fill="#13B237"/>
<path d="M37.0141 46.4289C36.8663 45.2208 36.6376 44.042 36.6007 42.8587C36.5568 41.4026 36.5175 39.9173 36.7508 38.4883C37.259 35.3733 40.0584 33.1059 43.2852 33.0202C44.2345 32.9954 45.1885 32.9954 46.1378 33.018C47.1033 33.0383 47.6322 33.5454 47.6369 34.4966C47.6507 37.6453 47.6784 40.7963 47.6115 43.9451C47.593 44.7881 47.2627 45.6265 47.1218 46.2576C47.8286 46.6295 48.5954 46.918 49.226 47.3846C50.9468 48.6581 52.6237 49.9902 54.2868 51.3335C54.751 51.7077 55.1991 51.8271 55.7812 51.7392C57.5158 51.4778 59.2551 51.2344 60.9967 51.0135C63.2233 50.7317 65.2236 52.1742 65.5932 54.2997C65.9605 56.4139 64.5676 58.4785 62.3387 58.8482C59.8441 59.2629 57.3057 59.4319 54.8111 59.8512C53.3952 60.0901 52.2241 59.8331 51.0969 59.0217C50.501 58.5935 49.8265 58.2689 49.0343 57.8091C49.0343 58.7558 48.9973 59.5807 49.0597 60.3989C49.0759 60.6062 49.3669 60.8407 49.584 60.9827C51.8291 62.459 54.0766 63.9308 56.3425 65.3733C57.0077 65.7948 57.301 66.3268 57.3773 67.0976C57.6798 70.0615 58.054 73.0187 58.3635 75.9804C58.419 76.5033 58.6569 76.7512 59.105 76.9834C61.2485 78.0788 62.4565 79.8391 62.8099 82.1607C63.0455 83.7024 62.5027 84.2997 60.902 84.302C57.9917 84.3042 55.0813 84.3042 52.171 84.302C51.0669 84.2997 50.4363 83.8196 50.4179 82.9834C50.3971 82.1156 51.0461 81.6062 52.1941 81.604C54.6956 81.5995 57.1948 81.6017 59.7102 81.6017C59.4076 80.1186 57.8207 78.9601 56.0376 78.9128C54.7418 78.879 53.4437 78.9083 52.1479 78.8993C51.0069 78.8925 50.5818 78.5499 50.3924 77.4748C50.0136 75.3155 49.6649 73.1517 49.2468 70.9992C49.1798 70.6588 48.8726 70.2621 48.5608 70.0863C47.593 69.5409 46.572 69.0901 45.5003 68.5694C44.4748 70.5664 43.3915 72.4845 42.4999 74.4815C41.9409 75.7325 41.1302 76.2486 39.7605 76.3455C36.573 76.5709 33.397 76.9383 30.2118 77.2156C29.5281 77.2742 29.11 77.4748 28.7497 78.1194C27.537 80.2742 25.5945 81.4124 23.0838 81.586C21.9335 81.6648 21.3722 81.1239 21.3676 79.9902C21.3583 77.0104 21.3583 74.0285 21.3676 71.0488C21.3722 69.9488 21.8827 69.4124 23.0145 69.4688C26.4653 69.6401 29.8445 69.2163 33.203 68.4748C33.8289 68.3373 34.053 68.0893 34.1431 67.5191C34.4687 65.4657 34.8267 63.4169 35.1848 61.3681C35.3557 60.3876 35.8015 60.0157 36.8247 60.0112C39.6196 60.0022 42.4144 60.009 45.2093 60.009C45.5211 60.009 45.8352 60.009 46.2602 60.009C46.2602 58.5912 46.2556 57.2231 46.2602 55.8572C46.2672 54.1983 47.2765 53.6416 48.7456 54.489C49.9351 55.1765 51.1524 55.8256 52.2865 56.5897C53.1088 57.1442 53.9287 57.2456 54.8781 57.1126C57.0446 56.8084 59.2182 56.5627 61.3894 56.2945C62.3572 56.175 62.9185 55.6228 62.8468 54.8542C62.7706 54.036 62.0985 53.5942 61.0729 53.7295C59.1327 53.9842 57.1925 54.2343 55.2592 54.5386C54.5154 54.6558 53.9264 54.5161 53.3444 54.0495C51.4734 52.5529 49.584 51.0766 47.6715 49.6295C47.362 49.3951 46.907 49.2306 46.5189 49.2261C43.4076 49.1945 40.2894 49.0976 37.185 49.2464C35.127 49.3455 33.0967 49.9113 31.0387 50.0916C29.6621 50.2111 29.0176 50.7926 28.6203 52.0548C27.9944 54.036 27.1629 55.9564 26.4052 57.897C26.165 58.5146 26.1142 59.0939 26.8095 59.4139C27.5047 59.734 27.9297 59.3192 28.2716 58.7558C29.1793 57.2569 30.1263 55.7783 31.0156 54.2682C31.4337 53.5582 31.9811 53.2178 32.8334 53.2471C33.9837 53.2877 35.1386 53.2494 36.2912 53.2606C37.4668 53.2697 37.945 53.752 37.9611 54.9195C37.9658 55.2283 37.9634 55.5371 37.9588 55.8482C37.9496 56.628 37.5592 57.1555 36.7739 57.2794C36.0186 57.3966 35.5128 57.0067 35.2494 56.317C35.2102 56.2133 35.1778 56.1074 35.1432 56.0127C35.0693 55.9947 35.0138 55.9812 34.9584 55.9699C33.7042 55.7355 32.8773 56.1434 32.3322 57.3403C31.8564 58.3839 31.1542 59.3328 30.5328 60.311C29.4103 62.0826 27.4169 62.7114 25.613 61.8775C23.7883 61.0322 23.026 59.0893 23.7767 57.0991C24.7907 54.4124 25.8486 51.7415 26.858 49.0525C27.1375 48.3042 27.6179 47.9436 28.424 47.8219C31.3528 47.3711 34.2724 46.8752 37.0141 46.4289ZM55.6195 76.1675C55.3054 73.3478 55.0143 70.6115 54.6771 67.8797C54.6471 67.6318 54.363 67.3591 54.1251 67.2013C51.9816 65.7813 49.8242 64.3816 47.6646 62.9842C47.4798 62.8647 47.2581 62.7204 47.0502 62.7182C43.9735 62.7002 40.8946 62.7069 37.7925 62.7069C37.7302 62.9774 37.6678 63.1938 37.6308 63.4124C37.3213 65.2404 37.0234 67.0706 36.7092 68.8985C36.4321 70.5033 36.2357 70.6724 34.605 70.9631C32.972 71.2561 31.3459 71.5739 29.7337 71.8782C29.7337 72.8091 29.7337 73.6611 29.7337 74.5198C29.9438 74.5198 30.0894 74.5311 30.2303 74.5176C33.2676 74.2268 36.305 73.9496 39.3378 73.6183C39.6242 73.5867 39.9753 73.2666 40.1208 72.9917C41.2803 70.7963 42.389 68.5762 43.5301 66.3696C44.0428 65.3801 44.7057 65.1705 45.7313 65.6596C47.1518 66.338 48.5284 67.1201 49.9882 67.7039C51.2979 68.2291 51.8592 69.063 52.0093 70.4177C52.2218 72.338 52.6376 74.2358 52.9725 76.1652C53.8548 76.1675 54.6817 76.1675 55.6195 76.1675ZM39.3516 41.1434C39.3516 42.1352 39.3216 43.0322 39.3586 43.9293C39.4163 45.2817 40.5158 46.3816 41.8693 46.4988C43.2598 46.6183 44.6272 45.6851 44.8051 44.317C44.9413 43.2802 44.8328 42.2118 44.8328 41.1457C42.9896 41.1434 41.2156 41.1434 39.3516 41.1434ZM24.1601 78.5522C26.4122 77.9165 27.3523 75.613 26.8048 72.2073C25.934 72.2073 25.0609 72.2073 24.1601 72.2073C24.1601 74.335 24.1601 76.4109 24.1601 78.5522ZM44.8443 35.7498C42.0125 35.5762 40.1185 36.5567 39.7374 38.3508C41.4374 38.3508 43.1351 38.3508 44.8443 38.3508C44.8443 37.4605 44.8443 36.6333 44.8443 35.7498Z" fill="#13B237"/>
<path d="M53.2196 89.698C46.9393 89.698 40.6566 89.7025 34.3763 89.6889C33.8381 89.6867 33.5263 89.7971 33.2422 90.311C32.4869 91.6814 31.2373 92.3937 29.6413 92.3847C28.0452 92.3756 26.8118 91.6431 26.0611 90.2727C25.7955 89.7881 25.5021 89.6822 24.9916 89.6867C22.5132 89.7092 20.0371 89.7002 17.5587 89.6957C16.4685 89.6934 15.838 89.1863 15.838 88.3456C15.8403 87.5026 16.4685 87.0022 17.5611 87C20.0395 86.9955 22.5156 86.9865 24.994 87.0067C25.4998 87.0113 25.7978 86.9143 26.0657 86.423C26.8118 85.0503 28.0498 84.32 29.6459 84.3133C31.2419 84.3065 32.4938 85.0233 33.2399 86.3937C33.5286 86.9233 33.8566 87.0022 34.3809 87.0022C46.8561 86.9932 59.3313 86.9955 71.8065 86.9955C72.0952 86.9955 72.3885 86.9707 72.6703 87.0113C73.421 87.1217 73.8576 87.5635 73.9107 88.305C73.9592 88.9992 73.4118 89.5875 72.6634 89.6777C72.407 89.7092 72.146 89.6912 71.8873 89.6912C65.667 89.698 59.4422 89.698 53.2196 89.698ZM31.041 88.3163C31.0248 87.5928 30.3966 86.9977 29.6551 87.0022C28.9137 87.0067 28.2946 87.6108 28.2877 88.3343C28.2808 89.0939 28.9437 89.7228 29.7152 89.6912C30.4566 89.6619 31.0572 89.0398 31.041 88.3163Z" fill="#13B237"/>
<path d="M79.4588 70.8302C79.4588 74.2878 79.4611 77.7476 79.4565 81.2051C79.4542 82.4786 78.983 82.9429 77.6987 82.9497C76.0842 82.9564 74.472 82.9587 72.8574 82.9497C71.6632 82.9429 71.162 82.4673 71.1597 81.3201C71.1551 74.3193 71.1551 67.3186 71.1597 60.3156C71.1597 59.1503 71.6517 58.6657 72.8274 58.6589C74.4419 58.6499 76.0542 58.6521 77.6687 58.6567C79.0038 58.6612 79.4542 59.1142 79.4565 60.4553C79.4611 63.9129 79.4588 67.3704 79.4588 70.8302ZM73.9754 61.3929C73.9754 62.3238 73.9754 63.1533 73.9754 63.9985C74.8946 63.9985 75.7654 63.9985 76.6293 63.9985C76.6293 63.0924 76.6293 62.2427 76.6293 61.3929C75.7146 61.3929 74.8623 61.3929 73.9754 61.3929ZM76.6593 66.8182C75.7008 66.8182 74.8277 66.8182 73.9684 66.8182C73.9684 67.7153 73.9684 68.5447 73.9684 69.4012C74.8831 69.4012 75.7539 69.4012 76.6593 69.4012C76.6593 68.5222 76.6593 67.6927 76.6593 66.8182ZM76.6524 72.2096C75.7146 72.2096 74.8438 72.2096 73.9938 72.2096C73.9938 73.1202 73.9938 73.9722 73.9938 74.8062C74.9131 74.8062 75.7654 74.8062 76.6524 74.8062C76.6524 73.9339 76.6524 73.1044 76.6524 72.2096ZM73.9892 77.5875C73.9892 78.5094 73.9892 79.3591 73.9892 80.1818C74.9247 80.1818 75.7978 80.1818 76.6455 80.1818C76.6455 79.2825 76.6455 78.4508 76.6455 77.5875C75.7493 77.5875 74.897 77.5875 73.9892 77.5875Z" fill="#13B237"/>
<path d="M65.2837 41.1075C69.4297 41.1075 73.5781 41.103 77.7242 41.1097C82.0412 41.1165 84.9862 43.9903 84.9908 48.2097C84.9977 56.0218 84.9931 63.834 84.9931 71.6462C84.9931 71.8716 85.0139 72.1015 84.9723 72.3201C84.8291 73.0436 84.3741 73.4854 83.6119 73.4854C82.8496 73.4854 82.3877 73.0481 82.2514 72.3201C82.2006 72.0474 82.2283 71.7589 82.2283 71.4794C82.2283 63.7799 82.2283 56.0804 82.2283 48.381C82.2283 45.4035 80.5907 43.81 77.5302 43.81C69.178 43.81 60.8281 43.81 52.4759 43.8077C52.1594 43.8077 51.8314 43.8393 51.5288 43.7694C50.8382 43.6071 50.4224 43.1563 50.4294 42.4463C50.4363 41.7386 50.8544 41.2968 51.5519 41.1436C51.8268 41.0827 52.1248 41.1097 52.4135 41.1097C56.7005 41.1075 60.9921 41.1075 65.2837 41.1075Z" fill="#13B237"/>
<path d="M11.6919 55.9564C12.5858 55.9564 13.4797 55.9384 14.3712 55.9609C15.2536 55.9857 15.831 56.5447 15.8264 57.311C15.8218 58.0729 15.2374 58.6341 14.3551 58.6454C12.5696 58.6657 10.7818 58.6679 8.99636 58.6454C8.11633 58.6341 7.53658 58.0616 7.5412 57.2953C7.54582 56.5289 8.12326 55.9835 9.01253 55.9609C9.90411 55.9384 10.798 55.9564 11.6919 55.9564Z" fill="#13B237"/>
<path d="M11.6503 64.0526C10.7864 64.0526 9.92027 64.0684 9.05871 64.0481C8.12556 64.0278 7.5227 63.4643 7.54349 62.671C7.56197 61.9091 8.14635 61.3704 9.03792 61.3614C10.7957 61.3434 12.5534 61.3434 14.3089 61.3614C15.242 61.3704 15.8472 61.9452 15.8264 62.7363C15.8079 63.4959 15.2212 64.0278 14.3297 64.0481C13.4358 64.0684 12.5419 64.0526 11.6503 64.0526Z" fill="#13B237"/>
<path d="M11.6041 69.4508C10.7403 69.4508 9.87408 69.4688 9.01253 69.4463C8.12557 69.4215 7.54582 68.876 7.5412 68.112C7.53658 67.3456 8.11402 66.7754 8.99405 66.7641C10.7795 66.7416 12.5673 66.7438 14.3528 66.7641C15.2374 66.7754 15.8195 67.3321 15.8241 68.0962C15.8287 68.8603 15.249 69.4238 14.3689 69.4485C13.4496 69.4711 12.5257 69.4508 11.6041 69.4508Z" fill="#13B237"/>
<path d="M10.9712 74.8513C10.3383 74.8513 9.70315 74.8648 9.07026 74.849C8.13018 74.8243 7.52963 74.2765 7.54118 73.4831C7.55273 72.719 8.1348 72.1758 9.02407 72.1601C10.3499 72.1398 11.6757 72.1353 12.9992 72.1623C13.8746 72.1804 14.4544 72.7574 14.4428 73.5215C14.4313 74.2833 13.8469 74.8197 12.96 74.8468C12.297 74.8671 11.6341 74.8513 10.9712 74.8513Z" fill="#13B237"/>
<path d="M10.3776 80.2426C9.86023 80.2426 9.33822 80.2764 8.82313 80.2336C8.0609 80.1705 7.53658 79.5935 7.5412 78.8925C7.54582 78.187 8.07245 77.6032 8.8393 77.5694C9.81634 77.5266 10.798 77.5243 11.775 77.5717C12.5373 77.6077 13.0616 78.2073 13.057 78.9083C13.0524 79.6093 12.5234 80.1727 11.7566 80.2359C11.3015 80.2742 10.8396 80.2426 10.3776 80.2426Z" fill="#13B237"/>
<path d="M23.9153 105.848C26.2251 104.385 27.9874 102.676 29.2902 100.546C29.7152 99.8498 30.0824 99.115 30.4081 98.3667C30.5929 97.9429 30.8077 97.7852 31.2928 97.7852C39.4394 97.8009 47.586 97.7919 55.735 97.8167C55.9936 97.8167 56.3909 98.0466 56.4879 98.2675C57.8253 101.324 59.8764 103.79 62.729 105.615C62.7914 105.656 62.8329 105.728 62.9392 105.848C49.9628 105.848 37.058 105.848 23.9153 105.848Z" fill="white"/>
<path d="M55.6194 76.1675C54.6817 76.1675 53.8571 76.1675 52.9701 76.1675C52.6375 74.2381 52.2194 72.3403 52.0069 70.42C51.8568 69.0631 51.2955 68.2291 49.9859 67.7062C48.5261 67.1224 47.1518 66.3403 45.7289 65.6619C44.7034 65.1728 44.0405 65.3824 43.5277 66.3719C42.3867 68.5762 41.278 70.7964 40.1185 72.994C39.9729 73.2689 39.6219 73.589 39.3354 73.6206C36.3027 73.9519 33.2653 74.2291 30.228 74.5199C30.0871 74.5334 29.9415 74.5221 29.7314 74.5221C29.7314 73.6634 29.7314 72.8091 29.7314 71.8805C31.3436 71.5762 32.972 71.2584 34.6027 70.9654C36.2334 70.6724 36.4297 70.5034 36.7069 68.9008C37.021 67.0729 37.319 65.2426 37.6285 63.4147C37.6655 63.1961 37.7278 62.9819 37.7902 62.7092C40.8922 62.7092 43.9712 62.7047 47.0478 62.7205C47.2534 62.7227 47.4751 62.867 47.6622 62.9864C49.8219 64.3839 51.9792 65.7836 54.1227 67.2036C54.3606 67.3614 54.6447 67.6341 54.6747 67.882C55.0143 70.6115 55.3053 73.3478 55.6194 76.1675Z" fill="white"/>
<path d="M39.3516 41.1436C41.2156 41.1436 42.9895 41.1436 44.8327 41.1436C44.8327 42.2119 44.9413 43.278 44.805 44.3149C44.6272 45.683 43.2598 46.6161 41.8693 46.4967C40.5158 46.3795 39.4163 45.2795 39.3586 43.9272C39.3216 43.0324 39.3516 42.1353 39.3516 41.1436Z" fill="white"/>
<path d="M24.1601 78.5523C24.1601 76.411 24.1601 74.3374 24.1601 72.2074C25.0609 72.2074 25.934 72.2074 26.8048 72.2074C27.3522 75.6131 26.4122 77.9167 24.1601 78.5523Z" fill="white"/>
<path d="M44.8443 35.7498C44.8443 36.6333 44.8443 37.4605 44.8443 38.3508C43.1351 38.3508 41.4374 38.3508 39.7374 38.3508C40.1185 36.5567 42.0125 35.574 44.8443 35.7498Z" fill="white"/>
<path d="M31.041 88.3162C31.0571 89.0375 30.4566 89.6618 29.7152 89.6911C28.9437 89.7227 28.2808 89.0938 28.2877 88.3343C28.2946 87.6108 28.9137 87.0067 29.6551 87.0022C30.3965 86.9977 31.0248 87.5927 31.041 88.3162Z" fill="white"/>
<path d="M73.9753 61.3929C74.8646 61.3929 75.7146 61.3929 76.6293 61.3929C76.6293 62.2427 76.6293 63.0924 76.6293 63.9985C75.7654 63.9985 74.8946 63.9985 73.9753 63.9985C73.9753 63.1555 73.9753 62.3238 73.9753 61.3929Z" fill="white"/>
<path d="M76.6594 66.8181C76.6594 67.6927 76.6594 68.5221 76.6594 69.4012C75.7562 69.4012 74.8854 69.4012 73.9684 69.4012C73.9684 68.5447 73.9684 67.7129 73.9684 66.8181C74.83 66.8181 75.7008 66.8181 76.6594 66.8181Z" fill="white"/>
<path d="M76.6524 72.2096C76.6524 73.1044 76.6524 73.9338 76.6524 74.8061C75.7631 74.8061 74.9131 74.8061 73.9938 74.8061C73.9938 73.9699 73.9938 73.1202 73.9938 72.2096C74.8438 72.2096 75.7146 72.2096 76.6524 72.2096Z" fill="white"/>
<path d="M73.9893 77.5875C74.897 77.5875 75.7493 77.5875 76.6455 77.5875C76.6455 78.453 76.6455 79.2825 76.6455 80.1818C75.7955 80.1818 74.9247 80.1818 73.9893 80.1818C73.9893 79.3591 73.9893 78.5094 73.9893 77.5875Z" fill="white"/>
</g>
<defs>
<clipPath id="clip0_333_333">
<rect width="83" height="81" fill="white" transform="translate(2 33)"/>
</clipPath>
</defs>
</svg>
