<svg width="98" height="114" viewBox="0 0 98 114" fill="none" xmlns="http://www.w3.org/2000/svg">
<path d="M47.8901 0C79.3075 0 103.824 42.5644 88.1148 69.8377C72.4061 97.111 -10.8266 121.228 7.66532 69.8377C26.1573 18.4477 16.4726 0 47.8901 0Z" fill="#6A4DF4" fill-opacity="0.1"/>
<path d="M92.595 44.6005C93.6014 44.6016 94.588 44.3212 95.4435 43.791C96.2991 43.2607 96.9895 42.5016 97.437 41.5994C97.8844 40.6972 98.071 39.6878 97.9758 38.6851C97.8805 37.6824 97.5071 36.7263 96.8978 35.9246C96.2885 35.123 95.4674 34.5078 94.5274 34.1485C93.5873 33.7891 92.5656 33.6999 91.5775 33.8909C90.5894 34.0819 89.6744 34.5454 88.9356 35.2293C88.1967 35.9132 87.6636 36.7901 87.3963 37.7612H55.1893V34.4363C55.1891 34.0554 55.0379 33.6902 54.7688 33.4209C54.4997 33.1516 54.1349 33.0002 53.7543 33H44.2424C43.8619 33.0002 43.497 33.1516 43.2279 33.4209C42.9589 33.6902 42.8076 34.0554 42.8074 34.4363V38.0082H10.6636C10.376 36.733 9.63631 35.6054 8.58154 34.8344C7.52678 34.0635 6.2285 33.7014 4.9274 33.8154C3.62629 33.9293 2.41059 34.5116 1.50566 35.4543C0.600726 36.3969 0.0679413 37.636 0.00606521 38.9418C-0.0558109 40.2477 0.357419 41.5316 1.16915 42.5558C1.98089 43.5799 3.13607 44.2748 4.42056 44.5115C5.70505 44.7482 7.03173 44.5108 8.15467 43.8432C9.2776 43.1756 10.1206 42.1231 10.5275 40.8809H31.9359C17.914 46.2157 7.64766 57.9221 5.27541 72.2426H1.43866C1.05814 72.2428 0.693269 72.3942 0.424203 72.6635C0.155137 72.9328 0.0038817 73.2981 0.00366445 73.6789V83.1996C0.00366445 83.5806 0.154851 83.9459 0.423964 84.2153C0.693077 84.4846 1.05807 84.636 1.43866 84.636H10.9506C11.3312 84.636 11.6962 84.4846 11.9653 84.2153C12.2344 83.9459 12.3856 83.5806 12.3856 83.1996V73.6789C12.3854 73.2981 12.2341 72.9328 11.9651 72.6635C11.696 72.3942 11.3311 72.2428 10.9506 72.2426H8.17902C11.0908 56.018 25.0012 43.4876 42.8074 41.0639V43.957C42.8074 44.338 42.9586 44.7033 43.2277 44.9727C43.4968 45.242 43.8618 45.3934 44.2424 45.3934H46.3129L24.5773 77.9321C24.4374 78.1418 24.3551 78.3848 24.3386 78.6365C24.3222 78.8881 24.3723 79.1397 24.4838 79.3659L34.4205 99.5228C32.556 101.158 31.0637 103.175 30.0443 105.437C29.025 107.698 28.5023 110.153 28.5116 112.634C28.5299 113.002 28.6889 113.35 28.9557 113.604C29.2225 113.858 29.5766 114 29.945 114H68.0518C68.4202 114 68.7745 113.858 69.0413 113.604C69.3081 113.35 69.467 113.003 69.4851 112.634C69.4944 110.153 68.9717 107.698 67.9524 105.437C66.9331 103.175 65.4408 101.158 63.5762 99.5228L73.5162 79.3618C73.6277 79.1356 73.6778 78.884 73.6614 78.6323C73.645 78.3807 73.5627 78.1377 73.4227 77.928L51.6839 45.3934H53.7543C54.1349 45.3934 54.4999 45.242 54.769 44.9727C55.0381 44.7033 55.1893 44.338 55.1893 43.957V41.0639C72.9955 43.4876 86.9059 56.0204 89.8177 72.2426H87.0461C86.6656 72.2428 86.3008 72.3942 86.0317 72.6635C85.7626 72.9328 85.6114 73.2981 85.6112 73.6789V83.1996C85.6112 83.5806 85.7623 83.9459 86.0314 84.2153C86.3006 84.4846 86.6656 84.636 87.0461 84.636H96.5581C96.9387 84.636 97.3037 84.4846 97.5728 84.2153C97.8419 83.9459 97.9931 83.5806 97.9931 83.1996V73.6789C97.9929 73.2981 97.8416 72.9328 97.5725 72.6635C97.3035 72.3942 96.9386 72.2428 96.5581 72.2426H92.7213C90.3122 57.6964 79.7588 45.8464 65.3983 40.6338H87.3979C87.7125 41.7724 88.3908 42.7766 89.3293 43.4929C90.2678 44.2092 91.4148 44.5982 92.595 44.6005ZM9.51561 81.7633H2.87365V75.1152H9.51561V81.7633ZM95.1231 81.7633H88.4811V75.1152H95.1231V81.7633ZM92.595 36.6663C93.0952 36.6663 93.5841 36.8148 94 37.0929C94.4159 37.371 94.74 37.7663 94.9314 38.2288C95.1228 38.6914 95.1729 39.2003 95.0753 39.6913C94.9777 40.1823 94.7369 40.6333 94.3832 40.9873C94.0296 41.3413 93.579 41.5824 93.0884 41.6801C92.5979 41.7777 92.0894 41.7276 91.6273 41.536C91.1652 41.3444 90.7702 41.02 90.4924 40.6038C90.2145 40.1875 90.0662 39.6981 90.0662 39.1975C90.0668 38.5264 90.3335 37.8829 90.8076 37.4084C91.2817 36.9338 91.9246 36.667 92.595 36.6663ZM5.40169 41.7279C4.90149 41.7279 4.41253 41.5794 3.99664 41.3012C3.58076 41.0231 3.25663 40.6277 3.06525 40.1651C2.87387 39.7026 2.82384 39.1936 2.92148 38.7026C3.01912 38.2115 3.26005 37.7605 3.6138 37.4066C3.96755 37.0526 4.41823 36.8116 4.90884 36.714C5.39944 36.6164 5.90794 36.6667 6.37001 36.8584C6.83209 37.0501 7.22699 37.3747 7.50476 37.791C7.78254 38.2074 7.93072 38.6968 7.93056 39.1975C7.9299 39.8685 7.66324 40.5119 7.1891 40.9863C6.71496 41.4607 6.07211 41.7274 5.40169 41.7279ZM48.9984 73.7331C49.9283 73.7331 50.8373 74.0091 51.6105 74.5262C52.3837 75.0433 52.9863 75.7782 53.3422 76.6381C53.6981 77.498 53.7913 78.4442 53.6099 79.3571C53.4286 80.27 52.9809 81.1086 52.3234 81.7668C51.6659 82.425 50.8282 82.8733 49.9162 83.0549C49.0041 83.2366 48.0588 83.1435 47.1996 82.7875C46.3404 82.4314 45.6061 81.8283 45.0893 81.0545C44.5726 80.2807 44.2967 79.3709 44.2965 78.4401C44.2976 77.1922 44.7933 75.9957 45.6748 75.1132C46.5563 74.2308 47.7516 73.7344 48.9984 73.7331ZM66.5594 111.127H31.4447C31.631 109.23 32.1912 107.389 33.093 105.71C33.9948 104.03 35.2202 102.547 36.6984 101.345H61.2983C62.7825 102.542 64.0125 104.024 64.916 105.704C65.8195 107.384 66.3783 109.228 66.5594 111.127ZM60.894 98.4722H37.1027L27.4235 78.8349L47.5634 48.6895V71.0016C45.7141 71.3589 44.0643 72.3932 42.9359 73.9025C41.8075 75.4119 41.2816 77.288 41.4609 79.1645C41.6402 81.0411 42.5118 82.7835 43.9055 84.0514C45.2992 85.3194 47.115 86.0219 48.9984 86.0219C50.8818 86.0219 52.6976 85.3194 54.0913 84.0514C55.485 82.7835 56.3565 81.0411 56.5358 79.1645C56.7151 77.288 56.1892 75.4119 55.0609 73.9025C53.9325 72.3932 52.2826 71.3589 50.4334 71.0016V48.6895L70.5733 78.8349L60.894 98.4722ZM52.3194 42.5207H45.6774V35.8726H52.3194V42.5207Z" fill="#6A4DF4"/>
</svg>
