<svg width="92" height="114" viewBox="0 0 92 114" fill="none" xmlns="http://www.w3.org/2000/svg">
<path d="M44.8901 0C76.3075 0 100.824 42.5644 85.1148 69.8377C69.4061 97.111 -13.8266 121.228 4.66532 69.8377C23.1573 18.4477 13.4726 0 44.8901 0Z" fill="#44D4D7" fill-opacity="0.1"/>
<path d="M32.3717 113.659C14.7477 113.659 0.408813 99.1728 0.408813 81.3663C0.408813 63.5591 14.7477 49.072 32.3717 49.072V51.9225C16.319 51.9225 3.25934 65.1312 3.25934 81.3663C3.25934 97.6008 16.319 110.809 32.3717 110.809C45.1891 110.809 56.361 102.501 60.1715 90.1345L62.8951 90.974C58.7148 104.542 46.4483 113.659 32.3717 113.659Z" fill="#44D4D7"/>
<path d="M38.5914 52.5668C36.5514 52.1206 34.4691 51.8958 32.3809 51.8962V49.0457C34.6798 49.0457 36.9745 49.2944 39.2029 49.7825L38.5914 52.5668Z" fill="#44D4D7"/>
<path d="M32.3809 113.684C21.6672 113.684 13.2745 99.4871 13.2745 81.3634C13.2745 63.2405 21.6672 49.0442 32.3809 49.0442V51.8947C23.4174 51.8947 16.1251 65.1147 16.1251 81.3634C16.1251 97.6135 23.4174 110.834 32.3809 110.834C40.2768 110.834 47.1744 100.154 48.4258 85.9913L51.2649 86.2421C49.8603 102.143 41.918 113.684 32.3809 113.684Z" fill="#44D4D7"/>
<path d="M30.955 50.4702H33.8055V112.257H30.955V50.4702Z" fill="#44D4D7"/>
<path d="M60.9524 93.6785H2.81241L2.46678 92.7499C1.08998 89.0492 0.391602 85.2189 0.391602 81.3642C0.391602 77.5039 1.09141 73.6721 2.47106 69.9743L2.8174 69.0471H40.125V71.8976H4.81276C3.77658 74.9464 3.24603 78.1442 3.24213 81.3642C3.24213 84.5575 3.76876 87.7359 4.80991 90.828H60.9524V93.6785Z" fill="#44D4D7"/>
<path d="M68.5127 88.819H58.5337L57.9458 81.6991C56.1557 81.1712 54.4433 80.4088 52.8533 79.4315L47.6483 83.8826L40.6068 76.7605L45.1655 71.3103C44.2644 69.6513 43.5856 67.8809 43.1466 66.0447L36.3552 65.4725V55.4187L43.3982 54.8243C43.9207 53.0111 44.6785 51.2741 45.6522 49.6577L41.2538 44.4021L48.2996 37.2815L53.6964 41.8986C55.3284 40.9947 57.0732 40.3115 58.885 39.8669L59.4509 33H69.4313L70.0185 40.122C71.8088 40.6494 73.5212 41.4119 75.1109 42.3896L80.3146 37.9385L87.3596 45.0606L82.7981 50.5093C83.6985 52.1695 84.3774 53.9405 84.8177 55.7771L91.6083 56.3472V66.4017L84.5661 66.9946C84.0438 68.8085 83.2857 70.546 82.3114 72.1626L86.7104 77.4169L79.6654 84.5382L74.2665 79.9218C72.6347 80.8248 70.8905 81.5075 69.0792 81.952L68.5127 88.819ZM61.1583 85.9684H65.8874L66.4133 79.5918L67.4751 79.3873C69.671 78.9665 71.7711 78.1467 73.6714 76.9686L74.5565 76.4206L79.5015 80.6501L82.858 77.2572L78.7675 72.3721L79.3646 71.4828C80.6251 69.6106 81.5372 67.5262 82.057 65.3299L82.2957 64.3258L88.7578 63.7814V58.9683L82.4468 58.4374L82.2458 57.372C81.83 55.1522 81.0182 53.0253 79.8492 51.093L79.3219 50.2207L83.51 45.2188L80.1549 41.8266L75.3247 45.9585L74.4225 45.3392C72.5798 44.0704 70.5203 43.1497 68.3459 42.6227L67.3461 42.3796L66.8081 35.8491H62.0769L61.5517 42.2279L60.4892 42.4324C58.2931 42.8518 56.193 43.6717 54.2936 44.8511L53.4078 45.3998L48.4628 41.1696L45.107 44.561L49.1968 49.4475L48.5997 50.3369C47.3404 52.2094 46.4287 54.2934 45.908 56.489L45.6693 57.4917L39.2079 58.0376V62.8514L45.5218 63.383L45.722 64.4491C46.1354 66.6676 46.9469 68.7929 48.1172 70.7224L48.646 71.594L44.4586 76.5995L47.8129 79.9916L52.6431 75.8612L53.5453 76.4805C55.3881 77.7488 57.4472 78.6694 59.6212 79.197L60.6203 79.44L61.1583 85.9684Z" fill="#44D4D7"/>
<path d="M63.9825 73.3107C57.2097 73.3107 51.7003 67.7472 51.7003 60.9102C51.7003 54.0718 57.2097 48.509 63.9825 48.509C70.7546 48.509 76.264 54.0725 76.264 60.9102C76.2647 67.7472 70.7546 73.3107 63.9825 73.3107ZM63.9825 51.3588C58.7817 51.3588 54.5508 55.6432 54.5508 60.9095C54.5508 66.1759 58.7824 70.4595 63.9825 70.4595C69.1826 70.4595 73.4135 66.1752 73.4135 60.9095C73.4142 55.6432 69.1833 51.3588 63.9825 51.3588Z" fill="#44D4D7"/>
</svg>
